<?xml version="1.0" standalone="no"?><!DOCTYPE svg PUBLIC "-//W3C//DTD SVG 1.1//EN" "http://www.w3.org/Graphics/SVG/1.1/DTD/svg11.dtd"><svg t="1595576906251" class="icon" viewBox="0 0 1024 1024" version="1.1" xmlns="http://www.w3.org/2000/svg" p-id="15067" xmlns:xlink="http://www.w3.org/1999/xlink" width="200" height="200"><path d="M0 0m512 0l0 0q512 0 512 512l0 0q0 512-512 512l0 0q-512 0-512-512l0 0q0-512 512-512Z" fill="#FFFFFF" p-id="15068"></path><path d="M768 290.1376h34.1376a68.2624 68.2624 0 0 1 0 136.5376H768V290.1376z" fill="#F24848" p-id="15069"></path><path d="M221.8624 290.1376H256v136.5376H221.8624a68.2624 68.2624 0 0 1 0-136.5376z" fill="#3EB382" p-id="15070"></path><path d="M221.8624 597.3376H256v136.5376H221.8624a68.2624 68.2624 0 0 1 0-136.5376z" fill="#1897F2" p-id="15071"></path><path d="M768 597.3376h34.1376a68.2624 68.2624 0 0 1 0 136.5376H768V597.3376z" fill="#F2AA19" p-id="15072"></path><path d="M426.6624 230.4v563.2a68.2624 68.2624 0 1 1-136.5248 0v-563.2a68.2624 68.2624 0 0 1 136.5248 0z" fill="#6179F2" p-id="15073"></path><path d="M290.1376 290.1376h443.7376v443.7376H290.1376z" fill="#6179F2" p-id="15074"></path><path d="M733.8624 230.4v563.2a68.2624 68.2624 0 1 1-136.5248 0v-563.2a68.2624 68.2624 0 0 1 136.5248 0z" fill="#6179F2" p-id="15075"></path><path d="M392.5376 392.5376m34.1376 0l-0.0128 0q34.1376 0 34.1376 34.1376l0-0.0128q0 34.1376-34.1376 34.1376l0.0128 0q-34.1376 0-34.1376-34.1376l0 0.0128q0-34.1376 34.1376-34.1376Z" fill="#FFFFFF" p-id="15076"></path><path d="M563.2 392.5376m34.1376 0l-0.0128 0q34.1376 0 34.1376 34.1376l0-0.0128q0 34.1376-34.1376 34.1376l0.0128 0q-34.1376 0-34.1376-34.1376l0 0.0128q0-34.1376 34.1376-34.1376Z" fill="#FFFFFF" p-id="15077"></path><path d="M409.6 529.0752h204.8a102.4 102.4 0 1 1-204.8 0z" fill="#FFFFFF" p-id="15078"></path></svg>