<?xml version="1.0" standalone="no"?><!DOCTYPE svg PUBLIC "-//W3C//DTD SVG 1.1//EN" "http://www.w3.org/Graphics/SVG/1.1/DTD/svg11.dtd"><svg t="1591946499968" class="icon" viewBox="0 0 1024 1024" version="1.1" xmlns="http://www.w3.org/2000/svg" p-id="10274" xmlns:xlink="http://www.w3.org/1999/xlink" width="200" height="200"><defs><style type="text/css"></style></defs><path d="M518.485333 611.555556c62.947556 0 113.777778-50.816 113.777778-113.777778V270.222222c0-62.961778-50.830222-113.777778-113.777778-113.777778a113.635556 113.635556 0 0 0-113.777777 113.777778v227.555556c0 62.961778 50.816 113.777778 113.777777 113.777778z m224.142223-113.777778c-18.588444 0-34.133333 13.653333-37.176889 32.241778-15.544889 89.116444-93.297778 157.383111-186.965334 157.383111-93.681778 0-171.434667-68.266667-186.979555-157.383111C328.476444 511.431111 312.917333 497.777778 294.343111 497.777778c-23.139556 0-41.344 20.48-37.930667 43.235555 18.588444 113.777778 109.610667 202.908444 224.142223 219.207111V839.111111c0 20.864 17.066667 37.930667 37.930666 37.930667 20.849778 0 37.916444-17.066667 37.916445-37.930667v-78.890667c114.545778-16.298667 205.568-105.429333 224.142222-219.207111 3.797333-22.755556-14.791111-43.235556-37.916444-43.235555z" p-id="10275"></path></svg>