<?xml version="1.0" standalone="no"?><!DOCTYPE svg PUBLIC "-//W3C//DTD SVG 1.1//EN" "http://www.w3.org/Graphics/SVG/1.1/DTD/svg11.dtd"><svg t="1591946341607" class="icon" viewBox="0 0 1024 1024" version="1.1" xmlns="http://www.w3.org/2000/svg" p-id="9175" xmlns:xlink="http://www.w3.org/1999/xlink" width="200" height="200"><defs><style type="text/css"></style></defs><path d="M190.464 682.453333l85.333333-67.84a85.546667 85.546667 0 0 0 32.426667-66.986666v-110.933334a642.858667 642.858667 0 0 1 397.653333 0v111.36c0 26.026667 11.946667 50.773333 32.426667 66.986667l84.906667 67.413333a85.461333 85.461333 0 0 0 113.493333-6.4l52.053333-52.053333c34.133333-34.133333 34.133333-90.88-2.133333-122.88-273.493333-241.493333-685.653333-241.493333-959.146667 0-36.266667 32-36.266667 88.746667-2.133333 122.88l52.053333 52.053333c30.293333 30.72 78.933333 33.28 113.066667 6.4z" p-id="9176"></path></svg>