<?xml version="1.0" standalone="no"?><!DOCTYPE svg PUBLIC "-//W3C//DTD SVG 1.1//EN" "http://www.w3.org/Graphics/SVG/1.1/DTD/svg11.dtd"><svg t="1591945654011" class="icon" viewBox="0 0 1024 1024" version="1.1" xmlns="http://www.w3.org/2000/svg" p-id="6591" xmlns:xlink="http://www.w3.org/1999/xlink" width="200" height="200"><defs><style type="text/css"></style></defs><path d="M640 224a64 64 0 0 1 64 64v102.4l127.072-76.256A64 64 0 0 1 928 369.024v285.952a64 64 0 0 1-96.928 54.88L704 633.6V736a64 64 0 0 1-64 64H160a64 64 0 0 1-64-64V288a64 64 0 0 1 64-64h480z m-32 96H192v384h416V320z m224 278.432v-172.896L687.904 512 832 598.432z" p-id="6592"></path></svg>