<?xml version="1.0" standalone="no"?><!DOCTYPE svg PUBLIC "-//W3C//DTD SVG 1.1//EN" "http://www.w3.org/Graphics/SVG/1.1/DTD/svg11.dtd"><svg t="1597669051313" class="icon" viewBox="0 0 1024 1024" version="1.1" xmlns="http://www.w3.org/2000/svg" p-id="3992" xmlns:xlink="http://www.w3.org/1999/xlink" width="200" height="200"><defs><style type="text/css"></style></defs><path d="M533.333333 42.666667c259.2 0 469.333333 210.133333 469.333334 469.333333s-210.133333 469.333333-469.333334 469.333333H149.333333a85.333333 85.333333 0 0 1-85.333333-85.333333V512C64 252.8 274.133333 42.666667 533.333333 42.666667z m128 554.666666H362.666667a42.666667 42.666667 0 1 0 0 85.333334h298.666666a42.666667 42.666667 0 1 0 0-85.333334z m0-213.333333H362.666667a42.666667 42.666667 0 1 0 0 85.333333h298.666666a42.666667 42.666667 0 1 0 0-85.333333z" p-id="3993"></path></svg>