<?xml version="1.0" standalone="no"?><!DOCTYPE svg PUBLIC "-//W3C//DTD SVG 1.1//EN" "http://www.w3.org/Graphics/SVG/1.1/DTD/svg11.dtd"><svg t="1591945650319" class="icon" viewBox="0 0 1024 1024" version="1.1" xmlns="http://www.w3.org/2000/svg" p-id="6469" xmlns:xlink="http://www.w3.org/1999/xlink" width="200" height="200"><defs><style type="text/css"></style></defs><path d="M816 400a48 48 0 0 1 47.136 57.088l0.512-9.056c-7.68 170.88-137.12 310.016-303.616 332.704L560 912a48 48 0 0 1-96 0v-131.232c-163.552-22.304-291.36-156.96-303.104-323.68a48 48 0 0 1 94.912-13.728L256 448h0.48a256 256 0 0 0 247.552 239.872L512 688a256 256 0 0 0 255.52-240H768a48 48 0 0 1 48-48zM512 64a144 144 0 0 1 144 144v224a144 144 0 1 1-288 0v-224A144 144 0 0 1 512 64z m0 96a48 48 0 0 0-47.776 43.392L464 208v224a48 48 0 0 0 95.776 4.608l0.224-4.608v-224A48 48 0 0 0 512 160z" p-id="6470"></path></svg>