<?xml version="1.0" standalone="no"?><!DOCTYPE svg PUBLIC "-//W3C//DTD SVG 1.1//EN" "http://www.w3.org/Graphics/SVG/1.1/DTD/svg11.dtd"><svg t="1591945619057" class="icon" viewBox="0 0 1024 1024" version="1.1" xmlns="http://www.w3.org/2000/svg" p-id="5859" xmlns:xlink="http://www.w3.org/1999/xlink" width="200" height="200"><defs><style type="text/css"></style></defs><path d="M512 102.4c226.2272 0 409.6 183.3728 409.6 409.6s-183.3728 409.6-409.6 409.6S102.4 738.2272 102.4 512 285.7728 102.4 512 102.4z m-72.3968 264.7808a51.2 51.2 0 1 0-72.4224 72.4224l72.3968 72.3712-72.3968 72.448-2.9952 3.2512a51.2 51.2 0 0 0 2.9952 69.12l3.2512 3.0208a51.2 51.2 0 0 0 69.1712-2.9952l72.3712-72.4224 72.448 72.4224a51.2 51.2 0 1 0 72.3968-72.4224L584.3968 512l72.4224-72.3712 2.9952-3.2768a51.2 51.2 0 0 0-2.9952-69.12l-3.2512-3.0208a51.2 51.2 0 0 0-69.1712 2.9952L512 439.5776z" p-id="5860"></path></svg>