<?xml version="1.0" standalone="no"?><!DOCTYPE svg PUBLIC "-//W3C//DTD SVG 1.1//EN" "http://www.w3.org/Graphics/SVG/1.1/DTD/svg11.dtd"><svg t="1591945647208" class="icon" viewBox="0 0 1024 1024" version="1.1" xmlns="http://www.w3.org/2000/svg" p-id="6347" xmlns:xlink="http://www.w3.org/1999/xlink" width="200" height="200"><defs><style type="text/css"></style></defs><path d="M752 128a40.64 40.64 0 0 1 40.096 47.36L773.312 288H848a48 48 0 0 1 0 96h-90.688l-42.656 256H784a48 48 0 0 1 0 96h-85.344l-18.752 112.64A56.64 56.64 0 0 1 624 896a40.64 40.64 0 0 1-40.096-47.36l18.752-112.64h-256l-18.752 112.64A56.64 56.64 0 0 1 272 896a40.64 40.64 0 0 1-40.096-47.36L250.656 736H176a48 48 0 0 1 0-96h90.656l42.656-256H240a48 48 0 0 1 0-96h85.312l18.784-112.64A56.64 56.64 0 0 1 400 128a40.64 40.64 0 0 1 40.096 47.36L421.312 288h256l18.784-112.64A56.64 56.64 0 0 1 752 128z m-133.344 512l42.656-256h-256l-42.656 256h256z" p-id="6348"></path></svg>