<?xml version="1.0" standalone="no"?><!DOCTYPE svg PUBLIC "-//W3C//DTD SVG 1.1//EN" "http://www.w3.org/Graphics/SVG/1.1/DTD/svg11.dtd"><svg t="1598854602565" class="icon" viewBox="0 0 1024 1024" version="1.1" xmlns="http://www.w3.org/2000/svg" p-id="4314" xmlns:xlink="http://www.w3.org/1999/xlink" width="48" height="48"><defs><style type="text/css">@font-face { font-family: element-icons; src: url("chrome-extension://moombeodfomdpjnpocobemoiaemednkg/fonts/element-icons.woff") format("woff"), url("chrome-extension://moombeodfomdpjnpocobemoiaemednkg/fonts/element-icons.ttf ") format("truetype"); }
</style></defs><path d="M905.557333 429.696a42.666667 42.666667 0 1 1-60.330666 60.352l-30.186667-30.186667-248.896 248.896-29.866667 149.482667a21.333333 21.333333 0 0 1-36.032 10.901333l-152.832-152.832-120.661333 120.682667A42.666667 42.666667 0 0 1 166.4 776.661333l120.682667-120.704-152.832-152.810666a21.333333 21.333333 0 0 1 10.88-36.010667l149.482666-29.909333L543.509333 188.330667l-30.144-30.165334a42.666667 42.666667 0 1 1 60.330667-60.330666l331.861333 331.861333z m-150.826666-30.165333l-150.890667-150.869334L336.682667 515.84l-57.557334 11.52 196.906667 196.906667 11.52-57.578667 267.157333-267.157333z" p-id="4315"></path></svg>