<?xml version="1.0" standalone="no"?><!DOCTYPE svg PUBLIC "-//W3C//DTD SVG 1.1//EN" "http://www.w3.org/Graphics/SVG/1.1/DTD/svg11.dtd"><svg t="1599040506232" class="icon" viewBox="0 0 1024 1024" version="1.1" xmlns="http://www.w3.org/2000/svg" p-id="4499" xmlns:xlink="http://www.w3.org/1999/xlink" width="200" height="200"><defs><style type="text/css"></style></defs><path d="M539.562667 85.333333a85.333333 85.333333 0 0 1 79.232 53.632l23.424 58.624 58.026666-24.874666a85.333333 85.333333 0 0 1 93.973334 18.090666l38.976 38.976a85.333333 85.333333 0 0 1 18.090666 93.952l-24.896 58.026667 58.645334 23.466667A85.333333 85.333333 0 0 1 938.666667 484.416v55.125333a85.333333 85.333333 0 0 1-53.632 79.232l-58.645334 23.424 24.896 58.026667 1.664 4.224a85.333333 85.333333 0 0 1-16.490666 86.293333l-3.264 3.456-38.976 38.976-3.285334 3.114667a85.333333 85.333333 0 0 1-86.272 16.725333l-4.394666-1.749333-58.048-24.896-23.424 58.645333a85.333333 85.333333 0 0 1-74.709334 53.504l-4.522666 0.128h-55.125334a85.333333 85.333333 0 0 1-77.44-49.493333l-1.792-4.138667-23.445333-58.645333-58.026667 24.896a85.333333 85.333333 0 0 1-90.666666-14.976l-3.285334-3.114667-38.976-38.976a85.333333 85.333333 0 0 1-19.754666-89.749333l1.664-4.202667 24.874666-58.048-58.624-23.424a85.333333 85.333333 0 0 1-53.504-74.709333L85.333333 539.562667v-55.125334a85.333333 85.333333 0 0 1 49.493334-77.44l4.138666-1.792 58.624-23.445333-24.874666-58.026667a85.333333 85.333333 0 0 1 14.976-90.666666l3.114666-3.285334 38.976-38.976a85.333333 85.333333 0 0 1 89.749334-19.754666l4.202666 1.664 58.026667 24.874666 23.466667-58.624A85.333333 85.333333 0 0 1 484.416 85.333333h55.125333z m-0.021334 85.333334h-55.104l-55.936 139.797333-137.088-58.773333-1.322666-0.533334-37.76 37.76-1.173334 1.237334 59.306667 138.346666L170.666667 484.48l0.021333 55.104 139.776 55.893333-58.773333 137.088-0.533334 1.344 37.76 37.76 1.237334 1.173334 138.346666-59.349334L484.48 853.333333h53.589333l1.514667-0.042666 55.893333-139.818667 138.389334 59.328 1.216-1.152 36.842666-36.842667 0.896-0.96-59.306666-138.410666L853.333333 539.541333v-55.104l-139.861333-55.936 59.370667-138.368-38.976-38.976-138.432 59.306667L539.541333 170.666667zM512 384a128 128 0 1 1 0 256 128 128 0 0 1 0-256z m0 85.333333a42.666667 42.666667 0 1 0 0 85.333334 42.666667 42.666667 0 0 0 0-85.333334z" p-id="4500"></path></svg>