<?xml version="1.0" standalone="no"?><!DOCTYPE svg PUBLIC "-//W3C//DTD SVG 1.1//EN" "http://www.w3.org/Graphics/SVG/1.1/DTD/svg11.dtd"><svg class="icon" width="200px" height="200.00px" viewBox="0 0 1024 1024" version="1.1" xmlns="http://www.w3.org/2000/svg"><path d="M853.333333 85.333333a85.333333 85.333333 0 0 1 85.333334 85.333334v298.666666a341.333333 341.333333 0 0 1-341.333334 341.333334H213.333333v64a64 64 0 0 1-128 0V426.666667a341.333333 341.333333 0 0 1 341.333334-341.333334h426.666666z m-42.666666 128h-384a213.333333 213.333333 0 0 0-213.12 204.074667L213.333333 426.666667v256h384a213.333333 213.333333 0 0 0 213.12-204.074667L810.666667 469.333333V213.333333z m-192 170.666667a64 64 0 0 1 0 128h-213.333334a64 64 0 0 1 0-128h213.333334z" /></svg>