<?xml version="1.0" standalone="no"?><!DOCTYPE svg PUBLIC "-//W3C//DTD SVG 1.1//EN" "http://www.w3.org/Graphics/SVG/1.1/DTD/svg11.dtd"><svg t="1591945384775" class="icon" viewBox="0 0 1024 1024" version="1.1" xmlns="http://www.w3.org/2000/svg" p-id="4639" xmlns:xlink="http://www.w3.org/1999/xlink" width="200" height="200"><defs><style type="text/css"></style></defs><path d="M384 512c141.376 0 256 114.624 256 256v42.666667a85.333333 85.333333 0 0 1-85.333333 85.333333H170.666667a85.333333 85.333333 0 0 1-85.333334-85.333333v-42.666667c0-141.376 114.624-256 256-256h42.666667z m0 85.333333h-42.666667a170.666667 170.666667 0 0 0-170.581333 165.333334L170.666667 768v21.333333a21.333333 21.333333 0 0 0 21.333333 21.333334h341.333333a21.333333 21.333333 0 0 0 21.333334-21.333334v-21.333333a170.666667 170.666667 0 0 0-165.333334-170.581333L384 597.333333z m490.666667 64a64 64 0 1 1 0 128 64 64 0 0 1 0-128z m0-213.333333a64 64 0 1 1 0 128 64 64 0 0 1 0-128zM362.666667 128a149.333333 149.333333 0 1 1 0 298.666667 149.333333 149.333333 0 0 1 0-298.666667z m512 106.666667a64 64 0 1 1 0 128 64 64 0 0 1 0-128z m-512-21.333334a64 64 0 1 0 0 128 64 64 0 0 0 0-128z" fill="#FFB319" p-id="4640"></path></svg>