<?xml version="1.0" standalone="no"?><!DOCTYPE svg PUBLIC "-//W3C//DTD SVG 1.1//EN" "http://www.w3.org/Graphics/SVG/1.1/DTD/svg11.dtd"><svg t="1597669056267" class="icon" viewBox="0 0 1024 1024" version="1.1" xmlns="http://www.w3.org/2000/svg" p-id="4132" xmlns:xlink="http://www.w3.org/1999/xlink" width="200" height="200"><defs><style type="text/css"></style></defs><path d="M512 576v85.333333h-170.666667a170.666667 170.666667 0 0 0-170.581333 165.333334L170.666667 832v21.333333h341.333333v85.333334H170.666667a85.333333 85.333333 0 0 1-85.333334-85.333334v-21.333333c0-141.376 114.624-256 256-256h170.666667z m277.333333 21.333333a21.333333 21.333333 0 0 1 21.333334 21.333334v106.666666h106.666666a21.333333 21.333333 0 0 1 21.333334 21.333334v42.666666a21.333333 21.333333 0 0 1-21.333334 21.333334h-106.666666v106.666666a21.333333 21.333333 0 0 1-21.333334 21.333334h-42.666666a21.333333 21.333333 0 0 1-21.333334-21.333334v-106.666666h-106.666666a21.333333 21.333333 0 0 1-21.333334-21.333334v-42.666666a21.333333 21.333333 0 0 1 21.333334-21.333334h106.666666v-106.666666a21.333333 21.333333 0 0 1 21.333334-21.333334h42.666666zM448 85.333333c117.824 0 213.333333 95.509333 213.333333 213.333334 0 115.84-92.309333 210.090667-207.36 213.248L448 512c-117.824 0-213.333333-95.509333-213.333333-213.333333 0-115.84 92.309333-210.090667 207.36-213.248L448 85.333333z m0 85.333334a128 128 0 1 0 0 256 128 128 0 0 0 0-256z" p-id="4133"></path></svg>