<?xml version="1.0" standalone="no"?><!DOCTYPE svg PUBLIC "-//W3C//DTD SVG 1.1//EN" "http://www.w3.org/Graphics/SVG/1.1/DTD/svg11.dtd"><svg t="1591942540782" class="icon" viewBox="0 0 1024 1024" version="1.1" xmlns="http://www.w3.org/2000/svg" p-id="3475" xmlns:xlink="http://www.w3.org/1999/xlink" width="200" height="200"><defs><style type="text/css"></style></defs><path d="M426.666667 149.333333a35.797333 35.797333 0 0 1 35.242666 42.026667L439.210667 320h213.333333l23.893333-135.424A42.666667 42.666667 0 0 1 718.464 149.333333H725.333333a35.797333 35.797333 0 0 1 35.242667 42.026667L737.877333 320H810.666667a42.666667 42.666667 0 1 1 0 85.333333h-87.850667l-37.653333 213.333334H768a42.666667 42.666667 0 1 1 0 85.333333h-97.898667l-23.893333 135.424A42.666667 42.666667 0 0 1 604.224 874.666667H597.333333a35.797333 35.797333 0 0 1-35.242666-42.026667L584.746667 704h-213.333334l-23.893333 135.424A42.666667 42.666667 0 0 1 305.557333 874.666667H298.666667a35.797333 35.797333 0 0 1-35.242667-42.026667L286.08 704H213.333333a42.666667 42.666667 0 1 1 0-85.333333h87.829334l37.653333-213.333334H256a42.666667 42.666667 0 1 1 0-85.333333h97.877333l23.893334-135.424A42.666667 42.666667 0 0 1 419.797333 149.333333H426.666667z m173.162666 469.333334l37.653334-213.333334h-213.333334l-37.653333 213.333334h213.333333z" p-id="3476"></path></svg>