<?xml version="1.0" standalone="no"?><!DOCTYPE svg PUBLIC "-//W3C//DTD SVG 1.1//EN" "http://www.w3.org/Graphics/SVG/1.1/DTD/svg11.dtd"><svg t="1591942452149" class="icon" viewBox="0 0 1024 1024" version="1.1" xmlns="http://www.w3.org/2000/svg" p-id="3235" xmlns:xlink="http://www.w3.org/1999/xlink" width="200" height="200"><defs><style type="text/css"></style></defs><path d="M597.333333 725.333333a42.666667 42.666667 0 1 1 0 85.333334H128a42.666667 42.666667 0 1 1 0-85.333334h469.333333z m22.442667-216.128c0.362667-9.045333 3.584-18.005333 9.685333-25.386666l2.773334-3.050667 211.2-211.2a42.666667 42.666667 0 0 1 62.826666 57.621333l-2.496 2.709334L721.664 512l182.101333 182.101333a42.666667 42.666667 0 1 1-60.330666 60.330667l-211.2-211.2a42.517333 42.517333 0 0 1-12.458667-28.437333v-5.589334zM469.333333 469.333333a42.666667 42.666667 0 1 1 0 85.333334H128a42.666667 42.666667 0 1 1 0-85.333334h341.333333z m128-256a42.666667 42.666667 0 1 1 0 85.333334H128a42.666667 42.666667 0 1 1 0-85.333334h469.333333z" p-id="3236"></path></svg>