<?xml version="1.0" standalone="no"?><!DOCTYPE svg PUBLIC "-//W3C//DTD SVG 1.1//EN" "http://www.w3.org/Graphics/SVG/1.1/DTD/svg11.dtd"><svg t="1591942574065" class="icon" viewBox="0 0 1024 1024" version="1.1" xmlns="http://www.w3.org/2000/svg" p-id="3955" xmlns:xlink="http://www.w3.org/1999/xlink" width="200" height="200"><defs><style type="text/css"></style></defs><path d="M33.706667 480.448a42.24 42.24 0 0 1 10.794666-7.850667l288.64-289.578666a42.261333 42.261333 0 0 1 59.797334 0.085333c15.68 15.744 16.490667 40.682667 2.474666 57.386667l-2.474666 2.688L125.013333 512l267.925334 268.842667a42.538667 42.538667 0 0 1 0 60.074666 42.261333 42.261333 0 0 1-57.088 2.56l-2.773334-2.56-288.576-289.493333A42.389333 42.389333 0 0 1 21.333333 515.221333v-6.442666c0.426667-10.282667 4.544-20.458667 12.373334-28.330667z" p-id="3956"></path></svg>