<?xml version="1.0" standalone="no"?><!DOCTYPE svg PUBLIC "-//W3C//DTD SVG 1.1//EN" "http://www.w3.org/Graphics/SVG/1.1/DTD/svg11.dtd"><svg t="1597669059605" class="icon" viewBox="0 0 1024 1024" version="1.1" xmlns="http://www.w3.org/2000/svg" p-id="4272" xmlns:xlink="http://www.w3.org/1999/xlink" width="200" height="200"><defs><style type="text/css"></style></defs><path d="M533.333333 576c141.376 0 256 114.624 256 256v21.333333a85.333333 85.333333 0 0 1-85.333333 85.333334H149.333333a85.333333 85.333333 0 0 1-85.333333-85.333334v-21.333333c0-141.376 114.624-256 256-256h213.333333z m0 85.333333H320a170.666667 170.666667 0 0 0-170.581333 165.333334L149.333333 832v21.333333h554.666667v-21.333333a170.666667 170.666667 0 0 0-165.333333-170.581333L533.333333 661.333333z m405.333334-149.333333a21.333333 21.333333 0 0 1 21.333333 21.333333v42.666667a21.333333 21.333333 0 0 1-21.333333 21.333333h-170.666667a21.333333 21.333333 0 0 1-21.333333-21.333333v-42.666667a21.333333 21.333333 0 0 1 21.333333-21.333333h170.666667zM426.666667 85.333333c117.824 0 213.333333 95.509333 213.333333 213.333334s-95.509333 213.333333-213.333333 213.333333-213.333333-95.509333-213.333334-213.333333S308.842667 85.333333 426.666667 85.333333z m512 256a21.333333 21.333333 0 0 1 21.333333 21.333334v42.666666a21.333333 21.333333 0 0 1-21.333333 21.333334h-170.666667a21.333333 21.333333 0 0 1-21.333333-21.333334v-42.666666a21.333333 21.333333 0 0 1 21.333333-21.333334h170.666667zM426.666667 170.666667a128 128 0 1 0 0 256 128 128 0 0 0 0-256z m512 0a21.333333 21.333333 0 0 1 21.333333 21.333333v42.666667a21.333333 21.333333 0 0 1-21.333333 21.333333h-170.666667a21.333333 21.333333 0 0 1-21.333333-21.333333V192a21.333333 21.333333 0 0 1 21.333333-21.333333h170.666667z" p-id="4273"></path></svg>