<?xml version="1.0" standalone="no"?><!DOCTYPE svg PUBLIC "-//W3C//DTD SVG 1.1//EN" "http://www.w3.org/Graphics/SVG/1.1/DTD/svg11.dtd"><svg t="1591946120482" class="icon" viewBox="0 0 1024 1024" version="1.1" xmlns="http://www.w3.org/2000/svg" p-id="7812" xmlns:xlink="http://www.w3.org/1999/xlink" width="200" height="200"><path d="M572.330667 29.290667l98.709333 98.688L829.632 128A66.368 66.368 0 0 1 896 194.368l-0.021333 158.549333 98.730666 98.752a85.333333 85.333333 0 0 1 0 120.661334L896 671.061333 896 829.632A66.368 66.368 0 0 1 829.632 896l-158.570667-0.021333-98.730666 98.730666a85.333333 85.333333 0 0 1-120.661334 0L352.917333 896 194.368 896A66.368 66.368 0 0 1 128 829.632l-0.021333-158.592-98.688-98.709333a85.333333 85.333333 0 0 1 0-120.661334l98.688-98.730666L128 194.368A66.368 66.368 0 0 1 194.368 128l158.570667-0.021333 98.730666-98.688a85.333333 85.333333 0 0 1 120.661334 0z" fill="#6179F2" p-id="7813"></path><path d="M505.770667 725.333333a85.333333 85.333333 0 0 1-79.232-53.632l-102.4-256A85.333333 85.333333 0 0 1 403.370667 298.666667H405.333333l106.666667 266.688L618.666667 298.666667h1.962666a85.333333 85.333333 0 0 1 80.746667 112.917333l-1.514667 4.117333-102.4 256a85.333333 85.333333 0 0 1-74.709333 53.504l-4.522667 0.128h-12.458666z" fill="#FFFFFF" p-id="7814"></path></svg>