<?xml version="1.0" standalone="no"?><!DOCTYPE svg PUBLIC "-//W3C//DTD SVG 1.1//EN" "http://www.w3.org/Graphics/SVG/1.1/DTD/svg11.dtd"><svg t="1597669062111" class="icon" viewBox="0 0 1024 1024" version="1.1" xmlns="http://www.w3.org/2000/svg" p-id="4412" xmlns:xlink="http://www.w3.org/1999/xlink" width="200" height="200"><defs><style type="text/css"></style></defs><path d="M106.666667 938.666667a85.333333 85.333333 0 0 1-85.333334-85.333334v-42.666666c0-141.376 114.624-256 256-256h170.666667c22.08 0 43.52 2.794667 63.957333 8.064H512l3.050667 0.810666 2.688 0.746667-5.76-1.557333a254.037333 254.037333 0 0 1 95.466666 47.637333 257.898667 257.898667 0 0 1 67.498667 81.728 254.634667 254.634667 0 0 1 28.970667 111.957333L704 810.666667v128H106.666667z m640-384c141.376 0 256 114.624 256 256v42.666666a85.333333 85.333333 0 0 1-85.333334 85.333334h-128v-128l-0.085333-7.552A340.48 340.48 0 0 0 673.770667 554.666667H746.666667zM661.333333 85.333333a192 192 0 1 1-82.346666 365.504A276.032 276.032 0 0 0 640 277.333333c0-65.664-22.826667-126.016-60.970667-173.525333A191.424 191.424 0 0 1 661.333333 85.333333zM362.666667 85.333333a191.701333 191.701333 0 0 1 153.536 76.693334L512 156.672a192.832 192.832 0 0 1 12.416 17.194667l0.341333 0.533333a192.042667 192.042667 0 0 1 23.125334 52.266667 190.826667 190.826667 0 0 1 6.656 57.344L554.666667 277.333333a195.328 195.328 0 0 1-2.410667 30.506667 190.869333 190.869333 0 0 1-32.213333 79.530667A192 192 0 1 1 362.666667 85.333333z" p-id="4413"></path></svg>