<?xml version="1.0" standalone="no"?><!DOCTYPE svg PUBLIC "-//W3C//DTD SVG 1.1//EN" "http://www.w3.org/Graphics/SVG/1.1/DTD/svg11.dtd"><svg t="1591943052243" class="icon" viewBox="0 0 1024 1024" version="1.1" xmlns="http://www.w3.org/2000/svg" p-id="5397" xmlns:xlink="http://www.w3.org/1999/xlink" width="200" height="200"><defs><style type="text/css"></style></defs><path d="M217.834667 127.338667l294.186666 294.144L806.144 127.36a64 64 0 0 1 87.424-2.88l3.072 2.88a64 64 0 0 1 0 90.496l-294.144 294.186667 294.144 294.144a64 64 0 1 1-90.496 90.496L512 602.517333 217.834667 896.661333a64 64 0 0 1-87.424 2.88l-3.072-2.88a64 64 0 0 1 0-90.496L421.482667 512 127.36 217.834667A64 64 0 0 1 217.813333 127.36z" p-id="5398"></path></svg>