<?xml version="1.0" standalone="no"?><!DOCTYPE svg PUBLIC "-//W3C//DTD SVG 1.1//EN" "http://www.w3.org/Graphics/SVG/1.1/DTD/svg11.dtd"><svg t="1591942825479" class="icon" viewBox="0 0 1024 1024" version="1.1" xmlns="http://www.w3.org/2000/svg" p-id="4557" xmlns:xlink="http://www.w3.org/1999/xlink" width="200" height="200"><defs><style type="text/css"></style></defs><path d="M725.333333 853.333333a42.666667 42.666667 0 0 1 3.2 85.226667L725.333333 938.666667H512C276.48 938.666667 85.333333 747.52 85.333333 512S276.48 85.333333 512 85.333333c233.066667 0 422.677333 187.178667 426.602667 419.328L938.666667 512v61.013333C938.666667 657.066667 873.386667 725.333333 789.333333 725.333333c-50.773333 0-98.56-24.746667-126.293333-62.72A212.096 212.096 0 0 1 512 725.333333c-117.76 0-213.333333-95.573333-213.333333-213.333333s95.573333-213.333333 213.333333-213.333333c115.754667 0 210.090667 92.373333 213.248 207.36L725.333333 512v61.013333c0 33.706667 30.293333 66.986667 64 66.986667 32.512 0 61.824-30.933333 63.893334-63.36l0.106666-3.626667V512c0-185.173333-156.16-341.333333-341.333333-341.333333S170.666667 326.826667 170.666667 512c0 182.976 152.469333 337.621333 334.72 341.269333L512 853.333333h213.333333zM512 384c-70.826667 0-128 57.173333-128 128s57.173333 128 128 128 128-57.173333 128-128-57.173333-128-128-128z" p-id="4558"></path></svg>