<?xml version="1.0" standalone="no"?><!DOCTYPE svg PUBLIC "-//W3C//DTD SVG 1.1//EN" "http://www.w3.org/Graphics/SVG/1.1/DTD/svg11.dtd"><svg t="1596613435034" class="icon" viewBox="0 0 2194 1024" version="1.1" xmlns="http://www.w3.org/2000/svg" p-id="3698" xmlns:xlink="http://www.w3.org/1999/xlink" width="428.515625" height="200"><defs><style type="text/css"></style></defs><path d="M618.530779 401.538385c18.081846 0 32.726496 14.64465 32.726496 32.726497v110.483919l163.906725-135.147631a32.726496 32.726496 0 0 1 43.696272 1.828296l2.011125 2.157389 41.008677 48.029333 0.365659 0.420508a32.726496 32.726496 0 0 1-2.230521 44.080214l-2.193955 2.011125-246.563982 203.306502v184.877279h227.092631c18.100129 0 32.726496 14.662933 32.726496 32.726496v62.235192a32.726496 32.726496 0 0 1-32.726496 32.726496H554.083349a32.726496 32.726496 0 0 1-32.726496-32.726496V434.264882c0-18.081846 14.64465-32.726496 32.726496-32.726497h64.44743z m-355.896076 10.055628l40.990394 48.029332a32.726496 32.726496 0 0 1-4.0771 46.493565l-5.539737 4.570739V991.273504a32.726496 32.726496 0 0 1-32.726496 32.726496h-64.44743a32.726496 32.726496 0 0 1-32.726496-32.726496l-0.018283-373.447716L95.053103 674.795487a32.726496 32.726496 0 0 1-45.707397-4.003968L8.318746 622.762187A32.726496 32.726496 0 0 1 12.432412 576.250339l204.494894-168.660294a32.726496 32.726496 0 0 1 45.707397 4.022251z m1898.593855 149.554602c18.063563 0 32.726496 14.64465 32.726496 32.726497V991.273504c0 17.185981-13.218579 31.26386-30.038901 32.616798l-2.687595 0.109698H1317.28718a32.726496 32.726496 0 0 1-32.726496-32.726496V593.875112c0-18.081846 14.662933-32.726496 32.726496-32.726497h843.923095z m-97.192209 127.669902H1414.479389v207.493299h649.55696V688.818517zM1483.497559 7.595472l48.998329 40.405339c5.923679 4.88155 9.689968 11.408566 11.189171 18.356091h601.308231c18.063563 0 32.726496 14.662933 32.726497 32.726496v62.235192c0 3.76629-0.639904 7.386315-1.828296 10.768663a32.68993 32.68993 0 0 1-7.459448 16.216984L1946.220962 448.635287a32.726496 32.726496 0 0 1-28.557981 16.74719H1317.28718a32.726496 32.726496 0 0 1-32.726496-32.726496v-62.235192c0-18.081846 14.662933-32.726496 32.726496-32.726496l198.095859-0.018283-93.224807-109.204113-30.971332 36.309957a32.726496 32.726496 0 0 1-45.707397 4.003968l-49.016613-40.405339a32.726496 32.726496 0 0 1-4.424476-46.073056l0.365659-0.438791L1437.771879 11.581157a32.726496 32.726496 0 0 1 45.72568-4.003968z m510.460209 186.431331H1562.35196l122.66037 143.649207h186.30335l122.642088-143.649207zM228.811229 2.51281c18.063563 0 32.726496 14.662933 32.726496 32.726496l-0.018283 63.021359h389.737833V35.257589c0-18.063563 14.662933-32.726496 32.726496-32.726496h64.465713c18.081846 0 32.726496 14.662933 32.726496 32.726496v63.021359l97.173926 0.018283c18.100129 0 32.726496 14.662933 32.726496 32.726496v62.235192a32.726496 32.726496 0 0 1-32.726496 32.726496h-97.173926v63.039642a32.726496 32.726496 0 0 1-32.726496 32.726496h-64.44743a32.726496 32.726496 0 0 1-32.726496-32.726496l-0.018283-63.057925H261.519442V289.025057a32.726496 32.726496 0 0 1-32.726496 32.726496H164.363799a32.726496 32.726496 0 0 1-32.726496-32.726496V225.948849H34.445094a32.726496 32.726496 0 0 1-32.726496-32.726496V131.023727c0-18.063563 14.64465-32.726496 32.726496-32.726496h97.173926V35.221023C131.637303 17.175743 146.281953 2.531093 164.363799 2.531093h64.465713z" p-id="3699"></path></svg>