<?xml version="1.0" standalone="no"?><!DOCTYPE svg PUBLIC "-//W3C//DTD SVG 1.1//EN" "http://www.w3.org/Graphics/SVG/1.1/DTD/svg11.dtd"><svg t="1597669045679" class="icon" viewBox="0 0 1024 1024" version="1.1" xmlns="http://www.w3.org/2000/svg" p-id="3852" xmlns:xlink="http://www.w3.org/1999/xlink" width="200" height="200"><defs><style type="text/css"></style></defs><path d="M512 42.666667c259.2 0 469.333333 210.133333 469.333333 469.333333s-210.133333 469.333333-469.333333 469.333333H128a85.333333 85.333333 0 0 1-85.333333-85.333333V512C42.666667 252.8 252.8 42.666667 512 42.666667z m128 213.333333c-24.384 0-44.928 18.133333-47.957333 42.346667L583.978667 362.666667h-128l8.064-64.32A37.674667 37.674667 0 0 0 426.666667 256c-24.384 0-44.928 18.133333-47.957334 42.346667L370.645333 362.666667H320a42.666667 42.666667 0 1 0 0 85.333333h39.978667l-15.978667 128H298.666667a42.666667 42.666667 0 1 0 0 85.333333h34.666666l-8.042666 64.32A37.674667 37.674667 0 0 0 362.666667 768c24.384 0 44.928-18.133333 47.957333-42.346667L418.666667 661.333333h128l-8.042667 64.32A37.674667 37.674667 0 0 0 576 768c24.384 0 44.928-18.133333 47.957333-42.346667L632 661.333333H682.666667a42.666667 42.666667 0 1 0 0-85.333333h-40l15.978666-128H704a42.666667 42.666667 0 1 0 0-85.333333h-34.688l8.064-64.32A37.674667 37.674667 0 0 0 640 256z m-66.688 192l-15.978667 128h-128l15.978667-128h128z" p-id="3853"></path></svg>