<?xml version="1.0" standalone="no"?><!DOCTYPE svg PUBLIC "-//W3C//DTD SVG 1.1//EN" "http://www.w3.org/Graphics/SVG/1.1/DTD/svg11.dtd"><svg t="1591942812812" class="icon" viewBox="0 0 1024 1024" version="1.1" xmlns="http://www.w3.org/2000/svg" p-id="4317" xmlns:xlink="http://www.w3.org/1999/xlink" width="200" height="200"><defs><style type="text/css"></style></defs><path d="M853.333333 85.333333a85.333333 85.333333 0 0 1 85.333334 85.333334v682.666666a85.333333 85.333333 0 0 1-85.333334 85.333334H170.666667a85.333333 85.333333 0 0 1-85.333334-85.333334V170.666667a85.333333 85.333333 0 0 1 85.333334-85.333334h682.666666z m0 85.333334H170.666667v682.666666h682.666666V170.666667zM298.666667 463.722667a42.666667 42.666667 0 0 1 23.68 7.168l328.405333 218.944A42.666667 42.666667 0 0 1 627.072 768H298.666667a42.666667 42.666667 0 0 1-42.666667-42.666667V506.389333a42.666667 42.666667 0 0 1 42.666667-42.666666zM704 256a64 64 0 1 1 0 128 64 64 0 0 1 0-128z" p-id="4318"></path></svg>