<?xml version="1.0" standalone="no"?><!DOCTYPE svg PUBLIC "-//W3C//DTD SVG 1.1//EN" "http://www.w3.org/Graphics/SVG/1.1/DTD/svg11.dtd"><svg t="1591942847408" class="icon" viewBox="0 0 1024 1024" version="1.1" xmlns="http://www.w3.org/2000/svg" p-id="5277" xmlns:xlink="http://www.w3.org/1999/xlink" width="200" height="200"><defs><style type="text/css"></style></defs><path d="M106.154667 183.168a42.666667 42.666667 0 0 1 52.906666-23.594667l3.136 1.194667 727.68 312.021333a42.666667 42.666667 0 0 1 3.008 76.992l-3.008 1.429334-727.68 312.021333a42.666667 42.666667 0 0 1-59.050666-45.290667l0.576-3.136L161.237333 554.666667H384a42.666667 42.666667 0 0 0 42.56-39.466667L426.666667 512a42.666667 42.666667 0 0 0-39.466667-42.56L384 469.333333H161.237333L103.722667 209.194667a42.666667 42.666667 0 0 1 1.088-22.464l1.344-3.562667z" p-id="5278"></path></svg>