<?xml version="1.0" standalone="no"?><!DOCTYPE svg PUBLIC "-//W3C//DTD SVG 1.1//EN" "http://www.w3.org/Graphics/SVG/1.1/DTD/svg11.dtd"><svg t="1596435759872" class="icon" viewBox="0 0 1024 1024" version="1.1" xmlns="http://www.w3.org/2000/svg" p-id="4117" xmlns:xlink="http://www.w3.org/1999/xlink" width="200" height="200"><defs><style type="text/css"></style></defs><path d="M585.301333 69.184L855.893333 324.778667A128 128 0 0 1 896 417.834667V896a85.333333 85.333333 0 0 1-85.333333 85.333333H213.333333a85.333333 85.333333 0 0 1-85.333333-85.333333V417.856a128 128 0 0 1 40.106667-93.077333L438.826667 69.162667a106.666667 106.666667 0 0 1 146.474666 0zM597.333333 469.333333h-170.666666a42.666667 42.666667 0 1 0 0 85.333334h170.666666a42.666667 42.666667 0 1 0 0-85.333334z" p-id="4118"></path></svg>