<?xml version="1.0" standalone="no"?><!DOCTYPE svg PUBLIC "-//W3C//DTD SVG 1.1//EN" "http://www.w3.org/Graphics/SVG/1.1/DTD/svg11.dtd"><svg t="1599285639135" class="icon" viewBox="0 0 1024 1024" version="1.1" xmlns="http://www.w3.org/2000/svg" p-id="6158" xmlns:xlink="http://www.w3.org/1999/xlink" width="200" height="200"><defs><style type="text/css"></style></defs><path d="M512 64c247.424 0 448 200.576 448 448S759.424 960 512 960 64 759.424 64 512 264.576 64 512 64z" fill="#6179F2" p-id="6159"></path><path d="M402.688 320l44.373333 61.056A150.613333 150.613333 0 0 0 375.210667 490.666667l72.789333 0.042666a21.333333 21.333333 0 0 1 21.333333 21.333334v128a21.333333 21.333333 0 0 1-21.333333 21.333333h-128A21.333333 21.333333 0 0 1 298.666667 640v-129.792A225.706667 225.706667 0 0 1 402.688 320zM554.666667 510.208A225.706667 225.706667 0 0 1 658.688 320l44.373333 61.056a150.613333 150.613333 0 0 0-71.850666 109.568l72.789333 0.042667a21.333333 21.333333 0 0 1 21.333333 21.333333v128a21.333333 21.333333 0 0 1-21.333333 21.333333h-128a21.333333 21.333333 0 0 1-21.333333-21.333333v-129.792z" fill="#FFFFFF" p-id="6160"></path></svg>