<?xml version="1.0" encoding="UTF-8"?>
<svg width="292px" height="64px" viewBox="0 0 292 64" version="1.1" xmlns="http://www.w3.org/2000/svg" xmlns:xlink="http://www.w3.org/1999/xlink">
    <title>logo</title>
    <g id="页面-1" stroke="none" stroke-width="1" fill="none" fill-rule="evenodd">
        <g id="750x1624" transform="translate(-229.000000, -1440.000000)">
            <g id="编组-4" transform="translate(229.000000, 1440.000000)">
                <g id="编组">
                    <rect id="矩形" x="0" y="0" width="64" height="64"></rect>
                    <g id="编组-3" transform="translate(1.333333, 0.000000)" fill="#6179F2">
                        <path d="M44,0 C46.9455187,-5.41083001e-16 49.3333333,2.38781467 49.3333333,5.33333333 L49.3333333,58.6666667 C49.3333333,61.6121853 46.9455187,64 44,64 C41.0544813,64 38.6666667,61.6121853 38.6666667,58.6666667 L38.666,53.333 L22.666,53.333 L22.6666667,58.6666667 C22.6666667,61.6121853 20.278852,64 17.3333333,64 C14.3878147,64 12,61.6121853 12,58.6666667 L12,5.33333333 C12,2.38781467 14.3878147,5.41083001e-16 17.3333333,0 C20.278852,-5.41083001e-16 22.6666667,2.38781467 22.6666667,5.33333333 L22.666,10.666 L38.666,10.666 L38.6666667,5.33333333 C38.6666667,2.38781467 41.0544813,5.41083001e-16 44,0 Z M9.33333333,42.6666667 L9.33333333,53.3333333 L5.33333333,53.3333333 C2.38781467,53.3333333 3.60722001e-16,50.9455187 0,48 C-3.60722001e-16,45.0544813 2.38781467,42.6666667 5.33333333,42.6666667 L9.33333333,42.6666667 Z M56,42.6666667 C58.9455187,42.6666667 61.3333333,45.0544813 61.3333333,48 C61.3333333,50.8718807 59.063417,53.213594 56.2198396,53.3288848 L56,53.3333333 L52,53.3333333 L52,42.6666667 L56,42.6666667 Z M40,32.6666667 L21.3333333,32.6666667 L21.3333333,34 C21.3333333,39.1546577 25.512009,43.3333333 30.6666667,43.3333333 C35.8213243,43.3333333 40,39.1546577 40,34 L40,34 L40,32.6666667 Z M23.3333333,20.6666667 C21.4923842,20.6666667 20,22.1590508 20,24 C20,25.8409492 21.4923842,27.3333333 23.3333333,27.3333333 C25.1742825,27.3333333 26.6666667,25.8409492 26.6666667,24 C26.6666667,22.1590508 25.1742825,20.6666667 23.3333333,20.6666667 Z M38,20.6666667 C36.1590508,20.6666667 34.6666667,22.1590508 34.6666667,24 C34.6666667,25.8409492 36.1590508,27.3333333 38,27.3333333 C39.8409492,27.3333333 41.3333333,25.8409492 41.3333333,24 C41.3333333,22.1590508 39.8409492,20.6666667 38,20.6666667 Z M9.33333333,10.6666667 L9.33333333,21.3333333 L5.33333333,21.3333333 C2.38781467,21.3333333 -3.60722001e-16,18.9455187 0,16 C3.51703951e-16,13.1281193 2.26991632,10.786406 5.11349372,10.6711152 L5.33333333,10.6666667 L9.33333333,10.6666667 Z M56,10.6666667 C58.9455187,10.6666667 61.3333333,13.0544813 61.3333333,16 C61.3333333,18.9455187 58.9455187,21.3333333 56,21.3333333 L52,21.3333333 L52,10.6666667 L56,10.6666667 Z" id="形状结合"></path>
                    </g>
                </g>
                <path d="M93.751623,51.4136393 L93.751623,35.709369 L107.050733,35.709369 L107.050733,29.692798 L93.751623,29.692798 L93.751623,20.387508 L109.131041,20.387508 L109.131041,14.3964308 L86,14.3964308 L86,51.4136393 L93.751623,51.4136393 Z M120.027891,51.8215424 C121.579867,51.8215424 123.036908,51.5113661 124.399014,50.8910134 C125.76112,50.2706607 126.987016,49.3656257 128.076701,48.1759082 L128.076701,48.1759082 L128.943496,51.4136393 L135.23395,51.4136393 L135.23395,34.6641173 C135.23395,31.0439771 134.235073,28.282133 132.237317,26.3785851 C130.239561,24.4750372 127.366755,23.5232632 123.618899,23.5232632 C121.93484,23.5232632 120.126954,23.7229658 118.195239,24.1223709 C116.263525,24.5217761 114.422618,25.0868919 112.672517,25.8177183 L112.672517,25.8177183 L114.282279,31.0949649 C115.504047,30.5510941 116.874409,30.1049501 118.393364,29.7565328 C119.912319,29.4081156 121.249659,29.2339069 122.405386,29.2339069 C125.790014,29.2339069 127.531859,30.8145315 127.630921,33.9757808 L127.630921,33.9757808 L127.630921,34.6641173 L124.386631,34.6641173 C120.192995,34.6641173 116.928068,35.4629276 114.591849,37.0605481 C112.25563,38.6581687 111.087521,40.8846399 111.087521,43.7399618 C111.087521,46.2043765 111.892402,48.1674102 113.502164,49.6290631 C115.111926,51.090716 117.287168,51.8215424 120.027891,51.8215424 Z M121.984371,46.7227533 C120.779114,46.7227533 119.846277,46.429573 119.185862,45.8432122 C118.525447,45.2568515 118.195239,44.4028043 118.195239,43.2810707 C118.195239,41.9213937 118.79374,40.859146 119.990743,40.0943276 C121.187745,39.3295092 122.867677,38.9471001 125.030536,38.9471001 L125.030536,38.9471001 L127.630921,38.9471001 L127.630921,43.9949012 C126.953995,44.8277034 126.116094,45.490546 125.117216,45.9834289 C124.118338,46.4763119 123.074056,46.7227533 121.984371,46.7227533 Z M149.325559,51.4136393 L149.325559,32.2931804 C149.969464,31.3244105 150.819748,30.5553431 151.876413,29.9859783 C152.933077,29.4166136 154.072293,29.1319312 155.294061,29.1319312 C156.647912,29.1319312 157.63028,29.4888464 158.241164,30.2026769 C158.852048,30.9165073 159.15749,32.0722328 159.15749,33.6698534 L159.15749,33.6698534 L159.15749,51.4136393 L166.760519,51.4136393 L166.760519,33.2364563 C166.760519,30.1771829 166.009297,27.810495 164.506853,26.1363926 C163.004408,24.4622902 160.866314,23.625239 158.09257,23.625239 C154.278673,23.625239 151.199487,25.035904 148.855013,27.8572339 L148.855013,27.8572339 L148.037749,24.0586361 L141.697764,24.0586361 L141.697764,51.4136393 L149.325559,51.4136393 Z M185.53282,51.7705545 C190.023644,51.7705545 193.556865,50.4661143 196.132484,47.8572339 C198.708103,45.2483535 199.995912,41.6834502 199.995912,37.1625239 C199.995912,32.8795411 198.972269,29.5525813 196.924982,27.1816444 C194.877695,24.8107075 192.013144,23.625239 188.33133,23.625239 C185.524565,23.625239 183.138815,24.6364988 181.17408,26.6590185 L181.17408,26.6590185 L181.17408,12.1529637 L173.571051,12.1529637 L173.571051,50.0624602 C174.908391,50.5723391 176.662619,50.9844912 178.833734,51.2989165 C181.004849,51.6133418 183.237878,51.7705545 185.53282,51.7705545 Z M185.186102,46.4423199 C183.634127,46.4593159 182.296786,46.2383684 181.17408,45.7794774 L181.17408,45.7794774 L181.17408,33.5678776 C181.504288,32.2421925 182.168831,31.1799448 183.167709,30.3811345 C184.166587,29.5823242 185.359461,29.1829191 186.746333,29.1829191 C188.545965,29.1829191 189.916326,29.8755046 190.857418,31.2606756 C191.798509,32.6458466 192.269055,34.6981092 192.269055,37.4174634 C192.269055,40.374761 191.662299,42.6182282 190.448786,44.1478649 C189.235273,45.6775016 187.481045,46.4423199 185.186102,46.4423199 Z M216.712671,52 C221.087922,52 224.439529,50.7592947 226.767492,48.277884 C229.095456,45.7964733 230.259437,42.2613129 230.259437,37.6724028 C230.259437,33.0834927 229.095456,29.5610792 226.767492,27.1051625 C224.439529,24.6492458 221.087922,23.4212874 216.712671,23.4212874 C212.353931,23.4212874 209.010579,24.6492458 206.682616,27.1051625 C204.354653,29.5610792 203.190671,33.0834927 203.190671,37.6724028 C203.190671,42.2783089 204.362908,45.8177183 206.707382,48.290631 C209.051855,50.7635437 212.386952,52 216.712671,52 Z M216.712671,46.0854047 C212.799711,46.0854047 210.843232,43.2810707 210.843232,37.6724028 C210.843232,32.0637349 212.799711,29.2678989 216.712671,29.2848178 C220.642142,29.2678989 222.606877,32.0637349 222.606877,37.6724028 C222.606877,43.2810707 220.642142,46.0854047 216.712671,46.0854047 Z M247.025727,52 C251.400978,52 254.752585,50.7592947 257.080548,48.277884 C259.408512,45.7964733 260.572493,42.2613129 260.572493,37.6724028 C260.572493,33.0834927 259.408512,29.5610792 257.080548,27.1051625 C254.752585,24.6492458 251.400978,23.4212874 247.025727,23.4212874 C242.666987,23.4212874 239.323635,24.6492458 236.995672,27.1051625 C234.667709,29.5610792 233.503727,33.0834927 233.503727,37.6724028 C233.503727,42.2783089 234.675964,45.8177183 237.020438,48.290631 C239.364911,50.7635437 242.700008,52 247.025727,52 Z M247.025727,46.0854047 C243.112767,46.0854047 241.156288,43.2810707 241.156288,37.6724028 C241.156288,32.0637349 243.112767,29.2678989 247.025727,29.2848178 C250.955198,29.2678989 252.919933,32.0637349 252.919933,37.6724028 C252.919933,43.2810707 250.955198,46.0854047 247.025727,46.0854047 Z M273.450589,51.4136393 L273.450589,12 L265.822794,12 L265.822794,51.4136393 L273.450589,51.4136393 Z M292,51.4136393 L281.870882,35.9643085 L290.439769,24.0586361 L282.366194,24.0586361 L273.9459,36.2192479 L283.530176,51.4136393 L292,51.4136393 Z" id="Fanbook" fill="#363940" fill-rule="nonzero"></path>
            </g>
        </g>
    </g>
</svg>