<?xml version="1.0" standalone="no"?><!DOCTYPE svg PUBLIC "-//W3C//DTD SVG 1.1//EN" "http://www.w3.org/Graphics/SVG/1.1/DTD/svg11.dtd"><svg class="icon" width="48px" height="48.00px" viewBox="0 0 1024 1024" version="1.1" xmlns="http://www.w3.org/2000/svg"><path fill="#8F959E" d="M183.535167 964.427067c-78.473429-79.610725-77.336133-206.987885 0-285.461313l88.709094-89.84639c-31.84429-36.393474-30.706994-90.983686 3.411888-125.102568l29.569698-29.569697c-23.883217-34.118882-20.471329-80.748021 9.098368-111.455015l181.967372-183.104667c32.981586-32.981586 86.434501-34.118882 120.553383-1.137296l1.137296 1.137296 10.235665 10.235664 50.041027-51.178323c19.334033-19.334033 50.041027-22.745921 72.786948-6.823776 1.137296-5.68648 3.411888-10.235665 7.961073-13.647553L829.519335 6.823776c11.372961-11.372961 28.432402-11.372961 39.805362 0l20.47133 20.47133c11.372961 11.372961 11.372961 29.569698 0 40.942658L819.28367 141.024713c-3.411888 3.411888-9.098369 6.823776-13.647552 7.961072 15.922145 22.745921 13.647553 53.452915-5.686481 73.924245L748.771314 272.951057l10.235665 10.235664c32.981586 34.118882 32.981586 88.709093 0 121.69068l-181.967371 183.104667c-28.432402 29.569698-75.061541 34.118882-108.043127 10.235665l-29.569698 29.569697c-34.118882 34.118882-88.709093 35.256178-123.965272 3.411889l-88.709093 89.846389C172.162207 776.773216 171.024911 865.482309 225.615122 921.209816c54.590211 54.590211 143.299305 55.727507 199.026812 1.137297l341.188821-343.463414c27.295106-27.295106 73.924245 11.372961 42.079955 43.217251L466.721889 964.427067c-77.336133 78.473429-203.575996 79.610725-282.049426 2.274592 0-1.137296 0-1.137296-1.137296-2.274592z m525.430785-813.16669l-39.805363 40.942659c-5.68648 5.68648-5.68648 14.784849 0 20.471329l20.471329 20.471329c5.68648 5.68648 14.784849 5.68648 20.47133 0l39.805362-40.942658c5.68648-5.68648 5.68648-14.784849 0-20.471329L728.299985 151.260377c-4.549184-5.68648-13.647553-5.68648-19.334033 0zM496.291587 548.176706c11.372961 11.372961 28.432402 11.372961 39.805362 0l181.967371-183.104668c11.372961-11.372961 11.372961-29.569698 0-40.942658L577.039608 181.967371c-11.372961-11.372961-28.432402-11.372961-39.805363 0l-181.967371 183.104667c-11.372961 11.372961-11.372961 29.569698 0 40.942659l141.024713 142.162009z m-98.944758 37.53077l26.157809-26.15781-77.336133-78.473429-27.295105 26.15781c-11.372961 11.372961-11.372961 30.706994 0 43.217251l35.256178 35.256178c12.510257 11.372961 30.706994 11.372961 43.217251 0z"  /></svg>