<?xml version="1.0" standalone="no"?><!DOCTYPE svg PUBLIC "-//W3C//DTD SVG 1.1//EN" "http://www.w3.org/Graphics/SVG/1.1/DTD/svg11.dtd"><svg class="icon" width="48px" height="44.36px" viewBox="0 0 1108 1024" version="1.1" xmlns="http://www.w3.org/2000/svg"><path fill="#8F959E" d="M532.971153 277.744592h15.428112c15.428112 0 26.648558 12.623001 26.648557 26.648558v239.837018c0 7.012778-2.805111 14.025557-7.012778 21.038335l-151.476012 154.281123c-9.81789 9.81789-26.648558 9.81789-36.466447 0l-12.623001-14.025556c-9.81789-11.220445-9.81789-26.648558 0-37.869003l138.853011-147.268345V307.198261c-1.402556-14.025557 8.415334-28.051113 23.843446-29.453669h2.805112z m548.399264 214.591017h-79.945672c0-5.610223-1.402556-12.623001-1.402556-18.233224C977.581298 192.188696 737.74428-19.597209 462.843369 1.441126 187.942459 23.882017-18.233224 269.329258 1.402556 549.840391c19.635779 266.485576 232.82424 469.856148 493.699594 474.063814 141.658122 2.805111 277.706022-56.102227 373.079806-161.293901 8.415334-8.415334 16.830668-16.830668 7.012779-28.051113l-8.415334-18.233224c-15.428112-18.233224-28.051113-9.81789-40.674115 1.402556-84.15334 93.97123-242.64213 145.865789-367.469584 131.840232C284.7188 934.140643 91.166118 733.575183 72.932895 561.060836 50.492004 339.457041 241.239574 95.412355 457.233147 72.971465S848.546177 224.447477 914.466293 413.792491c7.012778 25.246002 11.220445 51.89456 12.623001 79.945673h-78.543117c-15.428112 0-26.648558 12.623001-26.648558 26.648558 0 5.610223 1.402556 12.623001 5.610223 16.830668l103.789119 166.904124c11.220445 11.220445 29.453669 12.623001 40.674115 1.402556 0 0 1.402556 0 1.402555-1.402556l127.632566-166.904124c9.81789-11.220445 9.81789-26.648558 0-37.869003-5.610223-4.207667-12.623001-7.012778-19.63578-7.012778z"  /></svg>