<?xml version="1.0" standalone="no"?><!DOCTYPE svg PUBLIC "-//W3C//DTD SVG 1.1//EN" "http://www.w3.org/Graphics/SVG/1.1/DTD/svg11.dtd"><svg class="icon" width="48px" height="46.20px" viewBox="0 0 1064 1024" version="1.1" xmlns="http://www.w3.org/2000/svg"><path fill="#8F959E" d="M102.4 615.747368c97.010526-76.8 234.442105-78.147368 331.452632-1.347368 5.389474 4.042105 10.778947 9.431579 16.168421 14.821053 9.431579 9.431579 25.6 10.778947 35.031579 1.347368 4.042105-4.042105 6.736842-8.084211 6.736842-13.473684 6.736842-44.463158 12.126316-80.842105 24.252631-161.684211s17.515789-115.873684 24.252632-161.68421c4.042105-25.6 6.736842-45.810526 13.473684-91.621053s9.431579-66.021053 13.473684-91.621052c1.347368-6.736842 1.347368-12.126316 4.042106-22.905264s2.694737-17.515789 4.042105-22.905263c0-2.694737 1.347368-5.389474 1.347368-9.431579 9.431579 2.694737 18.863158 4.042105 26.947369 6.736842 148.210526 45.810526 249.263158 188.631579 250.610526 342.231579-67.368421-55.242105-152.252632-82.189474-238.484211-78.147368-13.473684 0-24.252632 12.126316-24.252631 25.6s12.126316 24.252632 25.6 24.252631h1.347368c84.884211-4.042105 168.421053 28.294737 229.052632 88.926316l10.778947 10.778948c9.431579 10.778947 24.252632 10.778947 35.031579 1.347368 4.042105-4.042105 6.736842-9.431579 8.084211-14.821053C924.294737 262.736842 804.378947 70.063158 617.094737 13.473684 599.578947 8.084211 582.063158 4.042105 564.547368 1.347368c-9.431579-2.694737-20.210526 0-26.947368 8.084211-4.042105 4.042105-6.736842 8.084211-6.736842 13.473684 0 2.694737-1.347368 4.042105-1.347369 6.736842v2.694737c-1.347368 5.389474-1.347368 5.389474-1.347368 12.126316-2.694737 2.694737-2.694737 6.736842-2.694737 9.431579-1.347368 6.736842-1.347368 12.126316-4.042105 22.905263s-2.694737 17.515789-2.694737 24.252632c-4.042105 25.6-6.736842 45.810526-13.473684 91.621052s-9.431579 66.021053-13.473684 91.621053c-6.736842 44.463158-12.126316 80.842105-24.252632 161.68421-8.084211 53.894737-13.473684 87.578947-17.515789 118.568421-114.526316-79.494737-268.126316-75.452632-377.263158 12.126316-82.189474 66.021053-97.010526 185.936842-30.989474 269.473684 9.431579 12.126316 20.210526 22.905263 32.336842 32.336843 107.789474 83.536842 257.347368 88.926316 370.526316 13.473684 9.431579-5.389474 17.515789-12.126316 25.6-18.863158 33.684211-29.642105 56.589474-68.715789 64.673684-113.178948 2.694737-13.473684-6.736842-25.6-20.210526-28.294736s-25.6 6.736842-28.294737 20.210526c-5.389474 33.684211-22.905263 63.326316-48.505263 84.88421-6.736842 5.389474-13.473684 10.778947-21.557895 16.168422-95.663158 63.326316-220.968421 59.284211-312.589474-12.126316-17.515789-13.473684-32.336842-32.336842-41.768421-52.547369-26.947368-60.631579-10.778947-130.694737 40.421053-172.463158zM929.684211 741.052632h-94.31579v-94.31579c1.347368-16.168421-5.389474-25.6-26.947368-26.947368h-1.347369c-14.821053 0-25.6 12.126316-25.6 26.947368v94.31579h-94.315789c-14.821053 0-26.947368 12.126316-26.947369 26.947368v1.347368c0 14.821053 12.126316 25.6 26.947369 25.6h94.315789v94.31579c1.347368 18.863158 9.431579 28.294737 26.947369 26.947368 24.252632-1.347368 26.947368-10.778947 26.947368-26.947368v-94.31579h94.31579c14.821053 0 25.6-2.694737 26.947368-26.947368v-5.389474c-1.347368-13.473684-13.473684-22.905263-26.947368-21.557894z m-121.263158-229.052632c-141.473684 0-256 114.526316-256 256s114.526316 256 256 256 256-114.526316 256-256-114.526316-256-256-256z m0 458.105263c-111.831579 0-202.105263-90.273684-202.105264-202.105263s90.273684-202.105263 202.105264-202.105263 202.105263 90.273684 202.105263 202.105263-90.273684 202.105263-202.105263 202.105263z"  /></svg>