<?xml version="1.0" standalone="no"?><!DOCTYPE svg PUBLIC "-//W3C//DTD SVG 1.1//EN" "http://www.w3.org/Graphics/SVG/1.1/DTD/svg11.dtd"><svg class="icon" width="48px" height="48.00px" viewBox="0 0 1024 1024" version="1.1" xmlns="http://www.w3.org/2000/svg"><path fill="#8F959E" d="M833.227397 116.427397H736.438356v64.526028h96.789041c35.068493 0 64.526027 28.054795 64.526028 64.526027V897.753425c0 35.068493-29.457534 64.526027-64.526028 64.526027H190.772603c-35.068493 0-64.526027-28.054795-64.526028-64.526027V244.076712c0-35.068493 29.457534-64.526027 64.526028-64.526027H287.561644V116.427397H190.772603c-70.136986 0-127.649315 57.512329-127.649315 127.649315v652.273973c0 70.136986 57.512329 127.649315 127.649315 127.649315h641.052055c70.136986 0 127.649315-57.512329 127.649315-127.649315V244.076712c1.40274-70.136986-56.109589-127.649315-126.246576-127.649315zM265.117808 601.775342l221.632877 220.230137c7.013699 7.013699 16.832877 9.819178 25.249315 9.819179 9.819178 0 18.235616-4.208219 25.249315-9.819179l221.632877-220.230137c12.624658-12.624658 12.624658-32.263014 0-44.887671s-32.263014-12.624658-44.887671 0L544.263014 723.813699V32.263014C544.263014 14.027397 528.832877 0 512 0c-16.832877 0-30.860274 14.027397-30.860274 30.860274v691.550685l-168.328767-165.523288c-11.221918-12.624658-30.860274-12.624658-43.484932-1.402739l-1.402739 1.402739c-11.221918 11.221918-12.624658 30.860274-2.80548 44.887671z"  /></svg>