<?xml version="1.0" standalone="no"?><!DOCTYPE svg PUBLIC "-//W3C//DTD SVG 1.1//EN" "http://www.w3.org/Graphics/SVG/1.1/DTD/svg11.dtd"><svg class="icon" width="48px" height="47.95px" viewBox="0 0 1025 1024" version="1.1" xmlns="http://www.w3.org/2000/svg"><path fill="#8F959E" d="M510.619946 672.086253c-88.32345 0-158.706199-71.762803-158.706199-160.086253 0-88.32345 71.762803-158.706199 160.086253-158.706199 88.32345 0 158.706199 71.762803 158.706199 158.706199 0 17.940701 13.800539 31.74124 31.74124 33.121294 17.940701 0 31.74124-13.800539 33.121294-31.74124v-1.380054C734.188679 389.175202 634.824798 289.811321 510.619946 288.431267S287.051213 389.175202 287.051213 512c0 122.824798 99.363881 223.568733 223.568733 223.568733 17.940701 1.380054 33.121294-12.420485 33.121294-30.361186 1.380054-17.940701-12.420485-33.121294-30.361186-33.121294H510.619946z m-63.48248-160.086253c0 35.881402 28.981132 63.48248 63.48248 63.48248 35.881402 0 63.48248-28.981132 63.48248-63.48248 0-35.881402-28.981132-63.48248-63.48248-63.48248-11.040431 0-22.080863 2.760108-31.74124 8.280324-19.320755 12.420485-31.74124 33.121294-31.74124 55.202156z m207.008087-331.212938c-16.560647-6.90027-34.501348 0-42.781672 16.560647-6.90027 16.560647 0 34.501348 16.560647 42.781671 75.902965 34.501348 136.625337 96.603774 166.986523 175.266846 6.90027 16.560647 24.84097 23.460916 41.401617 16.560647 15.180593-6.90027 23.460916-24.84097 17.940701-40.021563-37.261456-95.22372-109.024259-169.746631-200.107816-211.148248zM510.619946 959.137466c-247.02965 0-445.757412-200.107817-445.757412-447.137466S264.97035 66.242588 512 66.242588c245.649596 0 445.757412 200.107817 445.757412 445.757412 0 17.940701 15.180593 31.74124 33.121294 31.74124 16.560647 0 30.361186-13.800539 31.74124-31.74124 0-281.530997-227.708895-510.619946-509.239892-512C229.088949 1.380054 0 229.088949 0 510.619946s227.708895 510.619946 509.239892 512h1.380054c17.940701 1.380054 31.74124-12.420485 33.121294-30.361186 1.380054-17.940701-12.420485-31.74124-30.361186-33.121294H510.619946zM952.237197 582.382749H648.625337c-37.261456 0-69.002695 30.361186-69.002695 67.622642V954.997305c-2.760108 35.881402 24.84097 66.242588 60.722371 69.002695h310.51213c38.641509 0 70.382749-31.74124 70.382749-70.382749V648.625337c0-35.881402-28.981132-64.862534-64.862534-66.242588H952.237197z m13.800539 372.614556c0 9.660377-2.760108 13.800539-13.800539 13.800539H648.625337c-8.280323 0-13.800539 0-13.800539-13.800539V651.385445c-1.380054-6.90027 2.760108-12.420485 9.660377-13.800539H952.237197c6.90027 0 13.800539 6.90027 13.800539 13.800539v303.61186z m-69.002696-179.407009h-69.002695v-69.002695c0-15.180593-12.420485-27.601078-27.601078-27.601078s-27.601078 12.420485-27.601078 27.601078v69.002695h-69.002696c-15.180593 0-27.601078 12.420485-27.601078 27.601079s12.420485 27.601078 27.601078 27.601078h69.002696v69.002695c0 15.180593 12.420485 27.601078 27.601078 27.601078s27.601078-12.420485 27.601078-27.601078v-69.002695h69.002695c15.180593 0 27.601078-12.420485 27.601079-27.601078s-12.420485-27.601078-27.601079-27.601079z"  /></svg>