<?xml version="1.0" standalone="no"?><!DOCTYPE svg PUBLIC "-//W3C//DTD SVG 1.1//EN" "http://www.w3.org/Graphics/SVG/1.1/DTD/svg11.dtd"><svg class="icon" width="48px" height="31.69px" viewBox="0 0 1551 1024" version="1.1" xmlns="http://www.w3.org/2000/svg"><path fill="#8F959E" d="M0 899.878788h1551.515152v62.060606a62.060606 62.060606 0 0 1-62.060607 62.060606H62.060606a62.060606 62.060606 0 0 1-62.060606-62.060606v-62.060606zM248.242424 0h1055.030303a77.575758 77.575758 0 0 1 77.575758 77.575758v620.60606a77.575758 77.575758 0 0 1-77.575758 77.575758H248.242424a77.575758 77.575758 0 0 1-77.575757-77.575758V77.575758a77.575758 77.575758 0 0 1 77.575757-77.575758z m15.515152 62.060606h1024a31.030303 31.030303 0 0 1 31.030303 31.030303v589.575758a31.030303 31.030303 0 0 1-31.030303 31.030303H263.757576a31.030303 31.030303 0 0 1-31.030303-31.030303V93.090909a31.030303 31.030303 0 0 1 31.030303-31.030303z m434.424242 868.848485h155.151515a31.030303 31.030303 0 0 1 31.030303 31.030303v15.515151H667.151515v-15.515151a31.030303 31.030303 0 0 1 31.030303-31.030303z"  fill-opacity=".7" /></svg>