<?xml version="1.0" standalone="no"?><!DOCTYPE svg PUBLIC "-//W3C//DTD SVG 1.1//EN" "http://www.w3.org/Graphics/SVG/1.1/DTD/svg11.dtd"><svg class="icon" width="48px" height="48.00px" viewBox="0 0 1024 1024" version="1.1" xmlns="http://www.w3.org/2000/svg"><path fill="#8F959E" d="M467.562264 1024c-38.641509 0-46.369811-40.573585-52.166038-59.89434 0-3.864151-1.932075-7.728302-1.932075-13.524528C185.479245 904.211321 38.641509 712.935849 38.641509 479.154717 38.641509 210.596226 239.577358 0 504.271698 0 768.966038 0 985.358491 195.139623 985.358491 463.698113c0 243.441509-173.886792 454.037736-413.464151 488.815095-11.592453 7.728302-21.25283 17.388679-32.845283 25.116981-28.981132 28.981132-48.301887 46.369811-71.486793 46.369811z m-44.437736-127.516981c34.777358 3.864151 44.437736 44.437736 48.301887 63.75849 5.796226-5.796226 42.50566-25.116981 48.301887-32.845283 27.049057-25.116981 28.981132-32.845283 48.301887-32.845283 206.732075-30.913208 369.026415-206.732075 369.026415-415.396226C935.124528 245.373585 734.188679 48.301887 504.271698 48.301887c-231.849057 1.932075-419.260377 191.275472-417.328302 423.124528 0 206.732075 135.245283 388.34717 336.181132 425.056604z m38.64151-591.215094c0 23.184906 19.320755 42.50566 42.50566 42.50566s42.50566-19.320755 42.50566-42.50566c0-23.184906-19.320755-42.50566-42.50566-42.505661-23.184906-1.932075-42.50566 15.456604-42.50566 38.64151v3.864151z m42.50566 430.85283c-17.388679 0-30.913208-15.456604-32.845283-32.845283V444.377358c0-17.388679 13.524528-32.845283 32.845283-32.845283 17.388679 0 32.845283 13.524528 32.845283 32.845283v258.898114c0 19.320755-15.456604 32.845283-32.845283 32.845283z"  /></svg>