<?xml version="1.0" standalone="no"?><!DOCTYPE svg PUBLIC "-//W3C//DTD SVG 1.1//EN" "http://www.w3.org/Graphics/SVG/1.1/DTD/svg11.dtd"><svg class="icon" width="48px" height="48.00px" viewBox="0 0 1024 1024" version="1.1" xmlns="http://www.w3.org/2000/svg"><path fill="#8F959E" d="M459.4 364.4c0-8.8-7.1-15.8-15.8-15.8-8.7 0-15.8 7.1-15.8 15.8 0 76.4-61.9 138.4-138.4 138.4S151 440.9 151 364.4c-0.1-8.6-7.1-15.6-15.8-15.6-8.6 0-15.7 6.9-15.8 15.6 0.3 87.4 67 160.3 154.1 168.3v65.5H226c-8.8 0-15.8 7.1-15.8 15.8 0 8.7 7.1 15.8 15.8 15.8h126.6c5.7 0 10.9-3 13.7-7.9 2.8-4.9 2.8-10.9 0-15.8s-8-7.9-13.7-7.9h-47.5V533c87.2-7.8 154.1-80.9 154.3-168.6z"  /><path fill="#8F959E" d="M219.2 193.3c0-38.6 31.3-69.9 69.9-69.9s70 31.3 70 69.9v171.5c0 38.6-31.3 69.9-69.9 69.9s-70-31.3-70-69.9V193.3z m70 272.7c27 0 52.8-10.7 71.8-29.7 19-19.1 29.7-44.9 29.7-71.8V193.3c0-56.1-45.5-101.6-101.5-101.6-56.1 0-101.5 45.5-101.5 101.6v171.5c0.1 55.9 45.4 101.2 101.5 101.2z m615.6 208.9c0-8.8-7.1-15.8-15.8-15.8-8.7 0-15.8 7.1-15.8 15.8 0 76.4-61.9 138.4-138.4 138.4s-138.4-61.9-138.4-138.4c-0.1-8.6-7.1-15.6-15.8-15.6-8.6 0-15.7 6.9-15.8 15.6 0.3 87.4 67 160.3 154.1 168.3v65.5h-47.5c-8.8 0-15.8 7.1-15.8 15.8 0 8.7 7.1 15.8 15.8 15.8H798c5.7 0 10.9-3 13.7-7.9 2.8-4.9 2.8-10.9 0-15.8s-8-7.9-13.7-7.9h-47.5v-65.2c87.3-7.8 154.2-80.9 154.3-168.6z"  /><path fill="#8F959E" d="M664.7 503.8c0-38.6 31.3-69.9 69.9-69.9 38.6 0 70 31.3 70 69.9v171.5c0 38.6-31.3 69.9-69.9 69.9-38.6 0-70-31.3-70-69.9V503.8z m69.9 272.7c27 0 52.8-10.7 71.8-29.7 19-19.1 29.7-44.9 29.7-71.8V503.8c0-56.1-45.5-101.6-101.5-101.6-56.1 0-101.5 45.5-101.5 101.6v171.5c0.2 55.9 45.5 101.2 101.5 101.2zM796.9 389.5c-4.8 0-9.4-2.8-11.5-7.5-40.3-91.9-111-159-210.2-199.4-74.6-30.4-138.2-33.4-138.9-33.4-6.9-0.3-12.3-6.1-12-13s6.1-12.2 13-12c2.7 0.1 67.9 3.1 146.4 34.9 46.2 18.7 87.5 43.6 122.5 74 44 38.1 78.3 84.8 102 138.9 2.8 6.3-0.1 13.7-6.4 16.5-1.5 0.7-3.2 1-4.9 1zM587.2 603.3h-0.5c-1.2 0-29.6-1.4-63.6-15.1-45.4-18.4-79.2-50.5-97.7-92.7-2.8-6.3 0.1-13.7 6.4-16.5 6.3-2.8 13.7 0.1 16.5 6.4 16 36.5 44.1 63.1 83.4 79.3 30.1 12.3 55.8 13.6 56 13.6 6.9 0.3 12.2 6.1 11.9 13-0.2 6.8-5.8 12-12.4 12z"  /></svg>