<?xml version="1.0" standalone="no"?><!DOCTYPE svg PUBLIC "-//W3C//DTD SVG 1.1//EN" "http://www.w3.org/Graphics/SVG/1.1/DTD/svg11.dtd"><svg class="icon" width="48px" height="48.00px" viewBox="0 0 1024 1024" version="1.1" xmlns="http://www.w3.org/2000/svg"><path fill="#8F959E" d="M705.332537 741.191248L67.814503 779.538198l15.977895 27.162422 351.513703-532.063923c4.793369-7.988948 1.59779-19.173475-6.391158-23.966843-7.988948-4.793369-17.575685-3.195579-22.369054 4.793369l-351.513703 532.063922c-4.793369 7.988948-3.195579 19.173475 4.793369 23.966844 3.195579 1.59779 6.391158 3.195579 11.184527 3.195579l635.920244-38.346949c9.586737 0 17.575685-9.586737 15.977896-19.173475 0-7.988948-7.988948-15.977896-17.575685-15.977896zM491.228736 554.24987c86.280636 150.192218 193.332537 250.852961 249.255171 218.897169s22.369054-174.159062-63.911583-325.949069-193.332537-250.852961-249.255171-218.89717-23.966843 174.159062 63.911583 325.94907z m30.358001-19.173475c-76.693899-132.616533-107.0519-260.439698-76.693898-276.417593s124.627586 71.90053 201.321484 206.114853c76.693899 132.616533 107.0519 260.439698 76.693899 276.417593s-124.627586-71.90053-201.321485-206.114853z m391.458442 148.594429c-55.922635-126.225375-204.517063-183.745799-332.340228-127.823164-7.988948 4.793369-12.782316 14.380106-7.988948 23.966843 4.793369 7.988948 14.380106 11.184527 22.369054 7.988948 108.64969-47.933687 236.472855 0 284.406541 108.64969 4.793369 7.988948 14.380106 12.782316 23.966844 7.988947 9.586737-3.195579 12.782316-12.782316 9.586737-20.771264z m-121.432006 311.568964c-55.922635-73.49832-131.018744-129.420954-218.89717-159.778956-9.586737-3.195579-19.173475 3.195579-22.369054 11.184527-3.195579 9.586737 1.59779 17.575685 11.184527 20.771264 81.487267 27.162422 151.790008 79.889478 202.919274 146.99664 6.391158 7.988948 17.575685 9.586737 25.564633 3.195579 4.793369-4.793369 6.391158-14.380106 1.59779-22.369054zM505.608842 418.437758c123.029796-103.856321 139.007692-287.60212 36.74916-412.229706-6.391158-7.988948-17.575685-7.988948-25.564633-1.59779-6.391158 6.391158-7.988948 15.977896-1.59779 23.966843 91.074005 108.64969 76.693899 271.624225-31.955791 362.69823-7.988948 6.391158-7.988948 17.575685-1.59779 25.564633 6.391158 6.391158 17.575685 7.988948 23.966844 1.59779z m301.982226-162.974535l47.933687-118.236428c3.195579-9.586737 0-19.173475-9.586737-22.369054-9.586737-3.195579-19.173475 0-22.369054 9.586738l-47.933687 118.236427c-3.195579 9.586737 0 19.173475 9.586737 22.369054 7.988948 3.195579 17.575685-1.59779 22.369054-9.586737z"  /></svg>