<?xml version="1.0" standalone="no"?><!DOCTYPE svg PUBLIC "-//W3C//DTD SVG 1.1//EN" "http://www.w3.org/Graphics/SVG/1.1/DTD/svg11.dtd"><svg class="icon" width="48px" height="44.08px" viewBox="0 0 1115 1024" version="1.1" xmlns="http://www.w3.org/2000/svg"><path fill="#8F959E" d="M872.220444 906.717867a516.733156 516.733156 0 0 0 188.074667-395.810134 502.897778 502.897778 0 1 0-802.2016 399.610311l-69.085867 60.893867a29.969067 29.969067 0 0 0-3.822933 41.870222 30.560711 30.560711 0 0 0 42.211556 3.800178l84.445866-68.494222a496.731022 496.731022 0 0 0 249.469156 64.694044 483.009422 483.009422 0 0 0 257.137778-72.317155l3.822933 3.800178 88.291556 72.317155a30.560711 30.560711 0 0 0 42.211555-3.800178 29.969067 29.969067 0 0 0-3.822933-41.870222zM557.511111 952.388267a441.457778 441.457778 0 1 1 445.2352-441.457778 443.733333 443.733333 0 0 1-445.2352 441.457778zM192.876089 8.533333a30.3104 30.3104 0 0 0-42.234311 0L8.647111 149.367467a29.582222 29.582222 0 0 0 0 41.847466 30.287644 30.287644 0 0 0 42.211556 0l142.017422-140.811377a29.582222 29.582222 0 0 0 0-41.870223zM1106.375111 145.544533L964.357689 8.533333a30.287644 30.287644 0 0 0-42.211556 0 29.582222 29.582222 0 0 0 0 41.870223l142.017423 137.0112a30.287644 30.287644 0 0 0 42.211555 0 29.582222 29.582222 0 0 0 0-41.870223z m-264.829155 110.364445a48.196267 48.196267 0 0 0-49.902934-3.800178l-172.714666 152.234667a3.731911 3.731911 0 0 1-3.845689 3.800177 164.795733 164.795733 0 0 0-42.234311-7.600355 114.528711 114.528711 0 0 0-38.365867 7.600355c0-3.800178-3.845689-3.800178-3.845689-7.600355l-111.297422-98.963911a27.556978 27.556978 0 0 0-42.234311 3.822933 26.988089 26.988089 0 0 0 3.845689 41.847467l107.474488 95.163733a127.704178 127.704178 0 0 0-34.542933 83.717689 122.88 122.88 0 1 0 214.926222-79.917511l168.891734-148.434489a34.4064 34.4064 0 0 0 3.822933-41.870222zM572.8256 587.093333a60.893867 60.893867 0 1 1 61.44-60.893866 62.850844 62.850844 0 0 1-61.44 60.893866z"  /></svg>