<?xml version="1.0" standalone="no"?><!DOCTYPE svg PUBLIC "-//W3C//DTD SVG 1.1//EN" "http://www.w3.org/Graphics/SVG/1.1/DTD/svg11.dtd"><svg class="icon" width="48px" height="48.00px" viewBox="0 0 1024 1024" version="1.1" xmlns="http://www.w3.org/2000/svg"><path fill="#8F959E" d="M1004.892023 701.337284a31.352091 31.352091 0 0 0-44.33877-2.351919L845.227459 803.12421V184.242518a182.365687 182.365687 0 1 0-364.710923 0v656.941863a119.579698 119.579698 0 1 1-239.159397 0V184.242518a203.144372 203.144372 0 0 0-8.057876-37.876108 31.372543 31.372543 0 0 0-44.338769-2.331467l-167.701989 151.340819a31.433897 31.433897 0 1 0 41.986852 46.772494l115.366697-104.097942v618.861241a31.61796 31.61796 0 0 0 1.942889 10.921081 182.304333 182.304333 0 0 0 360.845596 0 31.61796 31.61796 0 0 0 2.045146-10.921081V184.242518a119.579698 119.579698 0 1 1 239.159397 0V856.911555a202.714892 202.714892 0 0 0 8.057876 37.855656 31.311188 31.311188 0 0 0 44.318318 2.351919l167.701989-151.340819a31.495252 31.495252 0 0 0 2.331467-44.420576z m0 0"  /></svg>