<?xml version="1.0" standalone="no"?><!DOCTYPE svg PUBLIC "-//W3C//DTD SVG 1.1//EN" "http://www.w3.org/Graphics/SVG/1.1/DTD/svg11.dtd"><svg class="icon" width="48px" height="34.30px" viewBox="0 0 1433 1024" version="1.1" xmlns="http://www.w3.org/2000/svg"><path fill="#8F959E" d="M1333.920914 0H99.679086A99.854629 99.854629 0 0 0 0 99.766857v824.466286A99.854629 99.854629 0 0 0 99.679086 1024h1234.037028A99.971657 99.971657 0 0 0 1433.6 923.940571V99.766857A99.854629 99.854629 0 0 0 1333.920914 0z m27.999086 904.923429a40.053029 40.053029 0 0 1-47.776914 47.689142H143.36c-34.933029 0-71.68-12.873143-71.68-47.689142V119.076571a40.053029 40.053029 0 0 1 47.776914-47.689142h1194.686172a40.053029 40.053029 0 0 1 47.776914 47.689142v785.846858z m54.944914-71.972572H22.996114l0.906972-47.104h1385.793828z m-634.411885 113.810286H643.657143a38.882743 38.882743 0 0 1-38.677943-38.619429A38.677943 38.677943 0 0 1 643.657143 869.522286h138.678857a38.677943 38.677943 0 0 1 38.677943 38.619428 38.882743 38.882743 0 0 1-38.560914 38.619429z"  /></svg>