<?xml version="1.0" standalone="no"?><!DOCTYPE svg PUBLIC "-//W3C//DTD SVG 1.1//EN" "http://www.w3.org/Graphics/SVG/1.1/DTD/svg11.dtd"><svg class="icon" width="48px" height="48.00px" viewBox="0 0 1024 1024" version="1.1" xmlns="http://www.w3.org/2000/svg"><path fill="#8F959E" d="M1024 512A512 512 0 1 0 512 1024 512 512 0 0 0 1024 512z m-972.131265 8.777143A468.908408 468.908408 0 0 1 520.672653 51.826939c258.925714 0 451.249633 210.02449 451.249633 468.950204s-192.261224 451.186939-451.249633 451.186939S51.868735 766.119184 51.868735 520.777143z m222.040816-177.841633v457.038368h51.847837V342.93551h-51.847837z m172.993306 0v457.038368H499.461224v-186.827756h133.746939c104.949551 0 158.072163-45.557551 158.072164-135.627755q0-134.478367-157.424327-134.582857h-186.890449z m52.474776 45.557551h131.197387a122.67102 122.67102 0 0 1 81.293062 22.360817 78.262857 78.262857 0 0 1 26.874775 66.664489 83.591837 83.591837 0 0 1-26.247837 67.709388 125.722122 125.722122 0 0 1-81.92 22.360816H499.461224v-179.09551z m0 0"  /></svg>