<?xml version="1.0" standalone="no"?><!DOCTYPE svg PUBLIC "-//W3C//DTD SVG 1.1//EN" "http://www.w3.org/Graphics/SVG/1.1/DTD/svg11.dtd"><svg class="icon" width="48px" height="48.00px" viewBox="0 0 1024 1024" version="1.1" xmlns="http://www.w3.org/2000/svg"><path fill="#8F959E" d="M508.643507 88.164891L241.724769 315.232848a130.335252 130.335252 0 0 1-77.862618 28.817109H102.403762a50.570997 50.570997 0 0 0-36.235582 15.338476 53.266724 53.266724 0 0 0-15.02502 37.175952v230.850333A51.992 51.992 0 0 0 102.403762 679.929146h61.374801a130.230766 130.230766 0 0 1 77.862618 28.817109l266.897841 227.04706V88.185788zM208.979004 749.244847a80.349373 80.349373 0 0 0-45.200441-16.717685H102.403762A103.879515 103.879515 0 0 1 0.007941 627.435615V396.564385a106.575242 106.575242 0 0 1 30.029142-74.331007 101.079303 101.079303 0 0 1 72.42937-30.739643H163.841254a80.746419 80.746419 0 0 0 45.200441-16.717685L520.533961 9.82164c21.691196-18.473042 39.28656-10.051508 39.286559 18.974572v966.470267c0 28.942492-17.616261 37.426717-39.286559 18.974572L208.979004 749.22395z m523.305334-5.934778a25.076527 25.076527 0 0 1-25.389984 3.46892 26.225868 26.225868 0 0 1-15.610138-20.897107 26.581119 26.581119 0 0 1 9.779845-24.282437 240.316722 240.316722 0 0 0-0.543324-379.261581 26.748296 26.748296 0 0 1-3.656994-36.966981 25.076527 25.076527 0 0 1 36.005714-3.761479 293.646137 293.646137 0 0 1-0.564222 461.637974z m76.796866 210.224889A25.181013 25.181013 0 0 1 773.200872 948.728623a26.769193 26.769193 0 0 1 4.701849-36.862495 515.489817 515.489817 0 0 0 194.823722-405.738215c0-149.832252-74.038447-292.371413-195.367047-393.952247a26.748296 26.748296 0 0 1-3.656993-36.966981 25.076527 25.076527 0 0 1 36.005714-3.761479C942.467433 182.494429 1023.966147 339.515285 1023.966147 506.107016a568.40129 568.40129 0 0 1-214.780458 447.386148z m0 0"  /></svg>