<?xml version="1.0" standalone="no"?><!DOCTYPE svg PUBLIC "-//W3C//DTD SVG 1.1//EN" "http://www.w3.org/Graphics/SVG/1.1/DTD/svg11.dtd"><svg t="1612842994434" class="icon" viewBox="0 0 1024 1024" version="1.1" xmlns="http://www.w3.org/2000/svg" p-id="2992" xmlns:xlink="http://www.w3.org/1999/xlink" width="48" height="48"><defs><style type="text/css"></style></defs><path d="M704 16H320A176 176 0 0 0 144 192v640A176 176 0 0 0 320 1008h384A176 176 0 0 0 880 832V192A176 176 0 0 0 704 16zM320 112h384c44.16 0 80 35.84 80 80v640c0 44.16-35.84 80-80 80H320c-44.16 0-80-35.84-80-80V192C240 147.84 275.84 112 320 112z" p-id="2993"></path><path d="M512 768m-64 0a64 64 0 1 0 128 0 64 64 0 1 0-128 0Z" p-id="2994"></path></svg>