<?xml version="1.0" standalone="no"?><!DOCTYPE svg PUBLIC "-//W3C//DTD SVG 1.1//EN" "http://www.w3.org/Graphics/SVG/1.1/DTD/svg11.dtd"><svg class="icon" width="48px" height="48.00px" viewBox="0 0 1024 1024" version="1.1" xmlns="http://www.w3.org/2000/svg"><path fill="#8F959E" d="M978.221176 964.969412H45.778824c-25.298824 0-45.778824 13.251765-45.778824 30.117647S20.48 1024 45.778824 1024h932.442352c25.298824 0 45.778824-13.251765 45.778824-30.117647s-20.48-28.912941-45.778824-28.912941zM330.089412 221.665882c-25.298824 0-44.574118 20.48-44.574118 45.778824 0 25.298824 20.48 44.574118 45.778824 44.574118 25.298824 0 44.574118-20.48 44.574117-45.778824 0-24.094118-20.48-44.574118-45.778823-44.574118z m171.068235 0c-25.298824 0-44.574118 20.48-44.574118 45.778824 0 25.298824 20.48 44.574118 45.778824 44.574118 25.298824 0 44.574118-20.48 44.574118-45.778824-1.204706-24.094118-21.684706-44.574118-45.778824-44.574118z m-171.068235 180.705883c-25.298824 0-44.574118 20.48-44.574118 45.778823 0 25.298824 20.48 44.574118 45.778824 44.574118 25.298824 0 44.574118-20.48 44.574117-44.574118 0-25.298824-20.48-45.778824-45.778823-45.778823z m171.068235 0c-25.298824 0-44.574118 20.48-44.574118 45.778823 0 25.298824 20.48 44.574118 45.778824 44.574118 25.298824 0 44.574118-20.48 44.574118-44.574118-1.204706-25.298824-21.684706-45.778824-45.778824-45.778823z m-171.068235 180.705882c-25.298824 0-44.574118 20.48-44.574118 45.778824 0 25.298824 20.48 44.574118 45.778824 44.574117 25.298824 0 44.574118-20.48 44.574117-45.778823 0-24.094118-20.48-44.574118-45.778823-44.574118z m171.068235 0c-25.298824 0-44.574118 20.48-44.574118 45.778824 0 25.298824 20.48 44.574118 45.778824 44.574117 25.298824 0 44.574118-20.48 44.574118-45.778823-1.204706-24.094118-21.684706-44.574118-45.778824-44.574118zM148.178824 889.072941h727.642352c25.298824 0 45.778824-20.48 45.778824-45.778823V595.124706c0-131.312941-24.094118-201.185882-86.738824-246.964706-31.322353-22.889412-68.668235-38.550588-107.218823-45.778824V177.091765C728.847059 80.715294 652.950588 2.409412 556.574118 0H273.468235C177.091765 2.409412 101.195294 80.715294 102.4 177.091765V843.294118c0 25.298824 20.48 45.778824 45.778824 45.778823z m578.258823-508.385882c13.251765 0 26.503529 6.023529 36.141177 15.661176v32.527059h38.550588c37.345882 21.684706 44.574118 75.896471 44.574117 166.249412v214.437647h-37.345882v-40.96h-45.778823v40.96h-33.731765l-2.409412-428.875294zM178.296471 178.296471c0-48.188235 39.755294-107.218824 83.124705-107.218824h297.562353c44.574118 0 95.171765 59.030588 95.171765 107.218824v631.265882H178.296471V178.296471z m630.061176 307.2h-45.778823V530.070588h45.778823v-44.574117z m0 180.705882h-45.778823V710.776471h45.778823v-44.574118z m0-90.352941h-45.778823v45.778823h45.778823v-45.778823z"  /></svg>