<?xml version="1.0" standalone="no"?><!DOCTYPE svg PUBLIC "-//W3C//DTD SVG 1.1//EN" "http://www.w3.org/Graphics/SVG/1.1/DTD/svg11.dtd"><svg class="icon" width="48px" height="33.37px" viewBox="0 0 1473 1024" version="1.1" xmlns="http://www.w3.org/2000/svg"><path fill="#8F959E" d="M786.618182 598.884848c65.163636-27.927273 94.642424-103.951515 65.163636-167.563636-27.927273-65.163636-103.951515-94.642424-167.563636-65.163636s-94.642424 103.951515-65.163637 167.563636c12.412121 29.478788 35.684848 52.751515 65.163637 65.163636v166.012122L510.448485 937.115152l72.921212 71.369696 152.048485-152.048484 152.048485 152.048484 72.921212-71.369696-173.769697-172.218182V598.884848z m521.309091 279.272728c201.69697-245.139394 201.69697-598.884848 0-844.024243-12.412121-13.963636-34.133333-17.066667-48.09697-4.654545s-17.066667 34.133333-4.654545 48.09697c181.527273 220.315152 181.527273 536.824242 0 757.139394-12.412121 13.963636-9.309091 35.684848 4.654545 48.096969 13.963636 12.412121 35.684848 10.860606 48.09697-4.654545zM1033.309091 688.872727c110.157576-134.981818 110.157576-328.921212 0-463.90303-12.412121-15.515152-34.133333-17.066667-48.09697-6.206061-15.515152 12.412121-17.066667 34.133333-6.20606 48.09697v1.551515c89.987879 108.606061 89.987879 266.860606 0 377.018182-12.412121 13.963636-9.309091 35.684848 4.654545 48.09697 15.515152 12.412121 37.236364 9.309091 49.648485-4.654546z m-868.848485 189.284849c-201.69697-245.139394-201.69697-598.884848 0-844.024243 12.412121-13.963636 34.133333-17.066667 48.09697-4.654545 13.963636 12.412121 17.066667 34.133333 4.654545 48.09697a594.40097 594.40097 0 0 0 0 757.139394c12.412121 13.963636 9.309091 35.684848-4.654545 48.096969-15.515152 12.412121-37.236364 10.860606-48.09697-4.654545z m273.066667-189.284849c-110.157576-134.981818-110.157576-328.921212 0-463.90303 12.412121-15.515152 34.133333-17.066667 48.096969-6.206061 15.515152 12.412121 17.066667 34.133333 6.206061 48.09697v1.551515c-89.987879 108.606061-89.987879 266.860606 0 377.018182 12.412121 13.963636 9.309091 35.684848-4.654545 48.09697-15.515152 12.412121-37.236364 9.309091-49.648485-4.654546z"  /></svg>