<?xml version="1.0" standalone="no"?><!DOCTYPE svg PUBLIC "-//W3C//DTD SVG 1.1//EN" "http://www.w3.org/Graphics/SVG/1.1/DTD/svg11.dtd"><svg class="icon" width="48px" height="48.00px" viewBox="0 0 1024 1024" version="1.1" xmlns="http://www.w3.org/2000/svg"><path fill="#8F959E" d="M855.578947 320.673684C855.578947 144.168421 691.2 0 509.305263 0S168.421053 144.168421 168.421053 320.673684C168.421053 485.052632 506.610526 877.136842 506.610526 877.136842S855.578947 490.442105 855.578947 320.673684m-454.063158 10.778948c-2.694737-63.326316 45.810526-117.221053 109.136843-119.91579 63.326316-2.694737 117.221053 45.810526 119.915789 109.136842 2.694737 63.326316-45.810526 117.221053-109.136842 119.91579h-5.389474c-61.978947 2.694737-113.178947-47.157895-114.526316-109.136842m223.663158 555.115789c1.347368 2.694737 1.347368 5.389474 1.347369 9.431579 0 29.642105-51.2 55.242105-114.526316 55.242105S397.473684 925.642105 397.473684 896c0-2.694737 0-5.389474 1.347369-9.431579-68.715789 12.126316-115.873684 36.378947-115.873685 63.326316 0 40.421053 102.4 72.757895 229.052632 72.757895s229.052632-32.336842 229.052632-72.757895c0-25.6-47.157895-49.852632-115.873685-63.326316"  /></svg>