<?xml version="1.0" standalone="no"?><!DOCTYPE svg PUBLIC "-//W3C//DTD SVG 1.1//EN" "http://www.w3.org/Graphics/SVG/1.1/DTD/svg11.dtd"><svg class="icon" width="48px" height="39.93px" viewBox="0 0 1231 1024" version="1.1" xmlns="http://www.w3.org/2000/svg"><path fill="#8F959E" d="M324.266667 113.371429L402.285714 343.771429h249.904762L449.828571 493.714286 524.190476 722.895238 325.485714 587.580952 125.561905 722.895238l74.361905-229.180952L0 343.771429h249.904762l74.361905-230.4z m800.914285 460.8l24.380953 74.361904h80.457143l-65.828572 48.761905 24.380953 74.361905-64.609524-43.885714-63.390476 43.885714 24.380952-74.361905-64.609524-48.761905h80.457143l24.380952-74.361904z m-53.638095-341.333334l54.857143 56.076191 71.92381-36.571429-37.790477 73.142857 53.638096 56.076191-76.8-10.971429-37.790477 68.266667-10.971428-76.8-79.238095-14.628572 73.142857-36.571428-10.971429-78.019048zM807.009524 36.571429l73.142857 26.819047L931.352381 0l-3.657143 82.895238L999.619048 109.714286l-74.361905 23.161904-6.095238 78.019048L877.714286 146.285714l-78.019048 20.72381 51.2-64.609524L807.009524 36.571429z m0 813.104761l73.142857 26.819048 49.980952-64.609524-3.657143 82.895238 71.92381 26.819048-74.361905 23.161905-4.87619 79.238095-41.447619-65.828571-78.019048 20.723809 51.2-64.609524-43.885714-64.609524z"  /></svg>