<?xml version="1.0" standalone="no"?><!DOCTYPE svg PUBLIC "-//W3C//DTD SVG 1.1//EN" "http://www.w3.org/Graphics/SVG/1.1/DTD/svg11.dtd"><svg class="icon" width="48px" height="46.86px" viewBox="0 0 1049 1024" version="1.1" xmlns="http://www.w3.org/2000/svg"><path fill="#8F959E" d="M347.683721 1024L523.906977 715.609302 701.32093 1024H347.683721zM523.906977 10.716279C233.376744 11.906977-1.190698 248.855814 1.190698 539.386047 1.190698 750.139535 127.404651 939.460465 320.297674 1021.618605l33.339535-57.153489C119.069767 869.209302 4.762791 602.493023 100.018605 367.925581S461.990698 19.051163 696.55814 114.306977 1045.432558 476.27907 950.176744 710.846512C903.739535 826.344186 812.055814 916.837209 696.55814 964.465116l33.339534 57.153489c267.906977-114.306977 391.739535-423.888372 277.432559-690.604652C923.981395 136.930233 734.660465 11.906977 523.906977 10.716279z m-80.967442 784.669768l33.339535-60.725582c-119.069767-27.386047-191.702326-146.455814-164.316279-264.334884s146.455814-191.702326 264.334883-164.316279S768 452.465116 740.613953 570.344186c-19.051163 82.15814-83.348837 145.265116-164.316279 164.316279l32.148838 60.725582C758.474419 748.948837 843.013953 589.395349 797.767442 439.367442 751.330233 288.148837 591.776744 203.609302 440.55814 250.046512c-150.027907 46.437209-234.567442 205.990698-189.320931 356.018604 27.386047 90.493023 98.827907 160.744186 189.320931 189.320931h2.381395z"  /></svg>