<?xml version="1.0" standalone="no"?><!DOCTYPE svg PUBLIC "-//W3C//DTD SVG 1.1//EN" "http://www.w3.org/Graphics/SVG/1.1/DTD/svg11.dtd"><svg class="icon" width="48px" height="48.00px" viewBox="0 0 1024 1024" version="1.1" xmlns="http://www.w3.org/2000/svg"><path fill="#8F959E" d="M977.847887 1016.788732h-20.191549c-21.633803 0-38.940845-17.307042-38.940845-38.940845V46.152113c0-21.633803 17.307042-38.940845 38.940845-38.940845h20.191549c21.633803 0 38.940845 17.307042 38.940845 38.940845v931.695774c0 21.633803-17.307042 38.940845-38.940845 38.940845z m-291.335211 0h-20.191549c-21.633803 0-38.940845-17.307042-38.940845-38.940845V337.487324c0-21.633803 17.307042-38.940845 38.940845-38.940845h20.191549c21.633803 0 38.940845 17.307042 38.940845 38.940845v641.802817c0 20.191549-17.307042 37.498592-38.940845 37.498591z m-311.526761 0h-20.191549c-21.633803 0-38.940845-17.307042-38.940845-38.940845V161.532394c0-21.633803 17.307042-38.940845 38.940845-38.940845H374.985915c21.633803 0 38.940845 17.307042 38.940846 38.940845v814.87324c1.442254 23.076056-15.864789 40.383099-38.940846 40.383098z m-310.084507 0H46.152113c-21.633803 0-38.940845-17.307042-38.940845-38.940845V512c0-21.633803 17.307042-38.940845 38.940845-38.940845h20.191549c21.633803 0 38.940845 17.307042 38.940845 38.940845v465.847887c-1.442254 21.633803-18.749296 38.940845-40.383099 38.940845z"  /></svg>