<?xml version="1.0" standalone="no"?><!DOCTYPE svg PUBLIC "-//W3C//DTD SVG 1.1//EN" "http://www.w3.org/Graphics/SVG/1.1/DTD/svg11.dtd"><svg class="icon" width="48px" height="31.51px" viewBox="0 0 1560 1024" version="1.1" xmlns="http://www.w3.org/2000/svg"><path fill="#8F959E" d="M609.263664 124.520135s-31.242684 26.783945-5.467076 48.731025c17.677404 15.093541 26.909987 1.685813 43.783872-10.83962s99.431457-91.033902 202.533889-81.218374 191.111324 56.514124 229.885024 129.965153a414.820285 414.820285 0 0 1 49.266703 227.411448 270.675396 270.675396 0 0 1-10.949907 70.394509 30.045284 30.045284 0 0 0 27.36689 32.48735 58.294468 58.294468 0 0 0 32.833965-5.404055c6.61721-5.750671 125.065267-68.834738 207.969455 21.663485s58.010874 176.852813 38.316796 238.251067-112.366526 126.766836-218.998137 102.881859S993.550252 749.452591 954.0203 698.484319s-146.523934-202.848994-169.668413-232.831257-160.939998-206.252131-317.468523-232.847013-311.52879 7.688568-410.519099 184.115988-50.180509 373.87236 16.416982 454.83865 171.511779 159.994683 322.982865 151.628639 341.195947-133.100451 394.102117-205.763718a23.632893 23.632893 0 0 0 5.467075-32.503105c-13.454993-17.15748-31.006355-4.49025-43.783872 5.41981s-150.746344 121.410047-257.251913 135.369209-255.424303 2.961989-322.982865-124.466568-57.695768-301.650241 32.849721-384.428385 213.924943-105.355435 350.302488-43.32697S799.87082 627.758949 811.734532 644.443772s176.978855 233.760818 202.518134 259.961818 129.776091 118.684386 262.734744 119.125533 227.758063-99.258149 257.251913-162.452503 33.448421-187.20402 10.949907-249.090688-82.935698-143.593455-164.201338-173.307878a258.906216 258.906216 0 0 0-175.166999 0s-4.253921-153.739844-27.36689-216.587583-110.286832-172.031703-186.101151-200.359663a325.834567 325.834567 0 0 0-218.998138-5.41981c-61.366744 22.340961-149.722252 83.156271-164.09105 108.207137z"  /></svg>