<?xml version="1.0" standalone="no"?><!DOCTYPE svg PUBLIC "-//W3C//DTD SVG 1.1//EN" "http://www.w3.org/Graphics/SVG/1.1/DTD/svg11.dtd"><svg class="icon" width="48px" height="48.00px" viewBox="0 0 1024 1024" version="1.1" xmlns="http://www.w3.org/2000/svg"><path fill="#8F959E" d="M780.633766 537.267532H617.05974c-43.885714 0-79.792208 35.906494-79.792208 79.792208v163.574026c0 134.316883 109.049351 243.366234 243.366234 243.366234C914.950649 1024 1024 914.950649 1024 780.633766c0-134.316883-109.049351-243.366234-243.366234-243.366234z m0 436.197403c-106.38961 0-192.831169-86.441558-192.831169-192.831169V617.05974c0-15.958442 13.298701-29.257143 29.257143-29.257143h163.574026c106.38961 1.32987 191.501299 87.771429 190.171429 194.161039-1.32987 105.05974-85.111688 190.171429-190.171429 191.501299z m-317.838961-412.25974c-14.628571-14.628571-35.906494-23.937662-55.854545-23.937663H243.366234C109.049351 537.267532 0 646.316883 0 780.633766S109.049351 1024 243.366234 1024c134.316883 0 243.366234-109.049351 243.366234-243.366234V617.05974c0-21.277922-9.309091-41.225974-23.937663-55.854545z m-26.597402 219.428571c0 106.38961-86.441558 192.831169-192.831169 192.831169S50.535065 887.023377 50.535065 780.633766s86.441558-192.831169 192.831169-192.831169h163.574026c15.958442 0 29.257143 13.298701 29.257143 29.257143v163.574026zM780.633766 0C646.316883 0 537.267532 109.049351 537.267532 243.366234v163.574026c0 43.885714 35.906494 79.792208 79.792208 79.792208h163.574026c134.316883 0 243.366234-109.049351 243.366234-243.366234C1024 109.049351 914.950649 0 780.633766 0z m0 436.197403H617.05974c-15.958442 0-29.257143-13.298701-29.257143-29.257143V243.366234c0-106.38961 86.441558-192.831169 192.831169-192.831169s192.831169 86.441558 192.831169 192.831169-86.441558 192.831169-192.831169 192.831169zM243.366234 0C109.049351 0 0 109.049351 0 243.366234c0 134.316883 109.049351 243.366234 243.366234 243.366234h163.574026c43.885714 0 79.792208-35.906494 79.792208-79.792208V243.366234C486.732468 109.049351 377.683117 0 243.366234 0z m192.831169 406.94026c0 15.958442-13.298701 29.257143-29.257143 29.257143H243.366234c-106.38961 0-192.831169-86.441558-192.831169-192.831169S136.976623 50.535065 243.366234 50.535065s192.831169 86.441558 192.831169 192.831169v163.574026z"  /></svg>