<?xml version="1.0" standalone="no"?><!DOCTYPE svg PUBLIC "-//W3C//DTD SVG 1.1//EN" "http://www.w3.org/Graphics/SVG/1.1/DTD/svg11.dtd"><svg class="icon" width="48px" height="48.00px" viewBox="0 0 1024 1024" version="1.1" xmlns="http://www.w3.org/2000/svg"><path fill="#8F959E" d="M514.893427 526.128373c-144.771182 1.177001-263.648332-116.523147-264.825333-261.29433C248.891092 118.88586 365.414239 1.185711 511.362423 0.00871c144.771182-1.177001 263.648332 116.523147 264.825334 261.294329v1.177002c0 144.771182-116.523147 262.471331-261.29433 263.648332z m0-480.216605C394.839276 44.734766 295.971152 141.248888 295.971152 261.303039c-1.177001 120.054151 95.33712 217.745274 215.391271 218.922276 120.054151 1.177001 217.745274-95.33712 218.922276-215.391272v-1.177001c0-120.054151-96.514122-217.745274-215.391272-217.745274z m309.55139 973.380226H702.036663v-45.903058h121.231153c38.841049 0 75.328095-18.832024 95.33712-51.788065 21.186027-32.956042 24.717031-74.151093 8.23901-110.638139-71.79709-162.426205-233.046294-268.356338-411.950519-268.356339h-7.062009c-177.727224 1.177001-338.976427 105.930133-411.950519 268.356339-16.478021 35.310044-12.947016 77.682098 8.239011 110.638139s56.496071 52.965067 95.33712 51.788065h118.87715v45.903058h-117.700149c-54.142068 0-104.753132-27.071034-134.178169-72.974092-29.425037-45.903058-34.133043-103.576131-11.770015-153.010193C135.89895 614.403484 312.449172 497.880337 509.00842 497.880337h7.062009c196.559248 0 373.10947 116.523147 453.145571 295.427372 22.363028 49.434062 17.655022 107.107135-11.770015 153.010193s-80.036101 72.974092-133.001168 72.974092zM490.176396 841.56477H536.079454V1024h-45.903058V841.56477z m40.018051 30.602039h-35.310045c-40.01805 0-72.974092-32.956042-72.974092-72.974092V717.979614c0-40.01805 32.956042-72.974092 72.974092-72.974092h35.310045c40.01805 0 72.974092 32.956042 72.974092 72.974092v81.213103c0 40.01805-32.956042 72.974092-72.974092 72.974092z m-35.310045-182.43523c-15.301019 0-27.071034 12.947016-27.071034 28.248035v81.213103c0 15.301019 11.770015 27.071034 27.071034 28.248035h35.310045c15.301019 0 27.071034-12.947016 27.071034-28.248035V717.979614c0-15.301019-11.770015-27.071034-27.071034-28.248035h-35.310045z"  /></svg>