<?xml version="1.0" standalone="no"?><!DOCTYPE svg PUBLIC "-//W3C//DTD SVG 1.1//EN" "http://www.w3.org/Graphics/SVG/1.1/DTD/svg11.dtd"><svg class="icon" width="48px" height="36.01px" viewBox="0 0 1365 1024" version="1.1" xmlns="http://www.w3.org/2000/svg"><path fill="#8F959E" d="M682.666667 1024c-31.030303 0-55.854545-24.824242-55.854546-55.854545V55.854545C626.812121 24.824242 651.636364 0 682.666667 0s55.854545 24.824242 55.854545 55.854545v912.29091c0 31.030303-24.824242 55.854545-55.854545 55.854545zM369.260606 857.987879c-31.030303 0-55.854545-24.824242-55.854545-55.854546V235.830303c0-31.030303 23.272727-55.854545 54.30303-55.854545s55.854545 23.272727 55.854545 54.30303v567.854545c1.551515 31.030303-23.272727 55.854545-54.30303 55.854546zM55.854545 710.593939c-31.030303 0-55.854545-24.824242-55.854545-55.854545V398.739394c0-31.030303 24.824242-55.854545 55.854545-55.854546s55.854545 24.824242 55.854546 55.854546v254.448485c1.551515 29.478788-20.169697 54.30303-49.648485 55.854545-1.551515 1.551515-4.654545 1.551515-6.206061 1.551515z m1253.624243 0c-31.030303 0-55.854545-24.824242-55.854546-55.854545V398.739394c0-31.030303 24.824242-55.854545 55.854546-55.854546s55.854545 24.824242 55.854545 55.854546v254.448485c0 31.030303-24.824242 55.854545-55.854545 57.40606z m-310.30303 145.842425c-31.030303 0-55.854545-24.824242-55.854546-55.854546V232.727273c0-31.030303 23.272727-55.854545 54.30303-55.854546s55.854545 23.272727 55.854546 54.303031v567.854545c1.551515 31.030303-23.272727 55.854545-54.30303 57.406061z"  /></svg>