<?xml version="1.0" standalone="no"?><!DOCTYPE svg PUBLIC "-//W3C//DTD SVG 1.1//EN" "http://www.w3.org/Graphics/SVG/1.1/DTD/svg11.dtd"><svg class="icon" width="48px" height="48.00px" viewBox="0 0 1024 1024" version="1.1" xmlns="http://www.w3.org/2000/svg"><path fill="#8F959E" d="M977.847887 1016.788732h-18.749295c-21.633803 0-38.940845-17.307042-38.940846-38.940845V53.36338C920.157746 31.729577 937.464789 14.422535 959.098592 14.422535h18.749295c21.633803 0 38.940845 17.307042 38.940845 38.940845v924.484507c0 21.633803-17.307042 38.940845-38.940845 38.940845z m-288.450704 0h-18.749296c-21.633803 0-38.940845-17.307042-38.940845-38.940845V341.814085c0-21.633803 17.307042-38.940845 38.940845-38.940846h18.749296c21.633803 0 38.940845 17.307042 38.940845 38.940846v636.033802c0 21.633803-17.307042 38.940845-38.940845 38.940845z m-308.642253 0h-18.749296c-21.633803 0-38.940845-17.307042-38.940845-38.940845V168.743662c0-21.633803 17.307042-38.940845 38.940845-38.940845h18.749296c21.633803 0 38.940845 17.307042 38.940845 38.940845v809.104225c0 21.633803-17.307042 38.940845-38.940845 38.940845zM72.112676 1016.788732H53.36338c-21.633803 0-38.940845-17.307042-38.940845-38.940845V514.884507C14.422535 493.250704 31.729577 475.943662 53.36338 475.943662H72.112676c21.633803 0 38.940845 17.307042 38.940845 38.940845v462.96338c0 21.633803-17.307042 38.940845-38.940845 38.940845z"  /></svg>