<?xml version="1.0" standalone="no"?><!DOCTYPE svg PUBLIC "-//W3C//DTD SVG 1.1//EN" "http://www.w3.org/Graphics/SVG/1.1/DTD/svg11.dtd"><svg class="icon" width="48px" height="48.00px" viewBox="0 0 1024 1024" version="1.1" xmlns="http://www.w3.org/2000/svg"><path fill="#8F959E" d="M775.314286 535.937662H614.4c-43.885714 0-78.462338 34.576623-78.462338 78.462338v160.914286c0 131.657143 106.38961 239.376623 239.376624 239.376623 131.657143 0 239.376623-106.38961 239.376623-239.376623 0-131.657143-107.719481-239.376623-239.376623-239.376624z m0 428.218182c-103.72987 0-188.841558-85.111688-188.841559-188.841558V614.4c0-15.958442 11.968831-27.927273 27.927273-27.927273h160.914286c103.72987 1.32987 187.511688 86.441558 186.181818 191.501299-1.32987 102.4-83.781818 184.851948-186.181818 186.181818zM462.794805 558.545455c-14.628571-14.628571-34.576623-22.607792-55.854545-22.607793h-159.584416c-131.657143 0-239.376623 106.38961-239.376623 239.376624s106.38961 239.376623 239.376623 239.376623c131.657143 0 239.376623-106.38961 239.376624-239.376623V614.4c-1.32987-19.948052-9.309091-39.896104-23.937663-55.854545z m-26.597402 216.768831c0 103.72987-85.111688 188.841558-188.841559 188.841558S58.514286 879.044156 58.514286 775.314286s85.111688-188.841558 188.841558-188.841559h160.914286c15.958442 0 27.927273 11.968831 27.927273 27.927273v160.914286zM775.314286 7.979221c-131.657143 0-239.376623 106.38961-239.376624 239.376623v160.914286c0 43.885714 34.576623 78.462338 78.462338 78.462338h160.914286c131.657143 0 239.376623-106.38961 239.376623-239.376624-1.32987-131.657143-107.719481-239.376623-239.376623-239.376623z m0 428.218182H614.4c-15.958442 0-27.927273-11.968831-27.927273-27.927273V247.355844c0-103.72987 85.111688-188.841558 188.841559-188.841558s188.841558 85.111688 188.841558 188.841558-85.111688 188.841558-188.841558 188.841559zM247.355844 7.979221c-131.657143 0-239.376623 106.38961-239.376623 239.376623 0 131.657143 106.38961 239.376623 239.376623 239.376624h160.914286c43.885714 0 78.462338-34.576623 78.462338-78.462338V247.355844c-1.32987-131.657143-107.719481-239.376623-239.376624-239.376623z m188.841559 398.961039c0 15.958442-11.968831 27.927273-27.927273 27.927272H247.355844c-103.72987 0-188.841558-85.111688-188.841558-188.841558S143.625974 57.184416 247.355844 57.184416s188.841558 85.111688 188.841559 188.841558v160.914286z"  /></svg>